<svg width="35" height="49" viewBox="0 0 35 49" fill="none" xmlns="http://www.w3.org/2000/svg">
<path d="M18.2213 48.9696C14.1396 48.9696 11.6337 48.2079 9.84815 46.4223C8.50138 45.1142 7.66793 43.2596 7.2512 40.6185H5.17586C3.66903 40.6185 3.51172 40.0114 3.51172 38.626V37.925C3.51172 36.7659 3.51172 35.8497 5.17586 35.8497H6.96971V34.4422H5.17586C3.66903 34.4422 3.51172 33.835 3.51172 32.4496V31.6686C3.51172 30.5095 3.51172 29.5933 5.17586 29.5933H7.19601C7.62653 26.3174 8.7056 24.1952 10.7561 22.5531C12.5306 21.1677 14.8074 20.4971 17.7245 20.4971C20.1862 20.4971 22.8632 21.1981 25.071 22.4179C25.9817 22.9146 25.8382 23.6791 25.6092 24.289C25.6037 24.3055 25.5954 24.3193 25.5899 24.3359L24.4363 26.7231C24.2652 27.1233 24.0196 27.3827 23.6939 27.4876C23.2082 27.6476 22.7418 27.3772 22.59 27.2889C21.1052 26.4085 19.2424 25.8841 17.6003 25.8841C16.3198 25.8841 15.4643 26.1932 14.7385 26.9163C14.1837 27.471 13.8415 28.2879 13.6263 29.596H20.3159C21.9801 29.596 21.9801 30.5123 21.9801 31.6714V32.4524C21.9801 33.8378 21.8228 34.4449 20.3159 34.4449H13.3365V35.8524H20.3159C21.9801 35.8524 21.9801 36.7687 21.9801 37.9278V38.6287C21.9801 40.0141 21.8228 40.6213 20.3159 40.6213H13.8443C14.0292 41.3085 14.2997 41.8577 14.6446 42.2606C15.4229 43.1934 16.5875 43.5908 18.5469 43.5908C20.04 43.5908 21.7317 43.2458 23.1916 42.6442C23.4621 42.5366 23.8567 42.4179 24.2321 42.6138C24.6433 42.8291 24.7812 43.2817 24.8861 43.7288L25.0572 44.4794C25.1262 44.7775 24.9386 45.0728 24.6433 45.1418C24.3452 45.2108 24.0499 45.0231 23.9809 44.7278L23.8098 43.9827C23.7657 43.8005 23.7325 43.6957 23.7105 43.635C23.6829 43.6432 23.6497 43.6543 23.6056 43.6708C22.0215 44.3221 20.1752 44.6975 18.5442 44.6975C16.2536 44.6975 14.7909 44.1676 13.8001 42.9754C13.2178 42.2965 12.8259 41.3747 12.6107 40.1687C12.5831 40.0086 12.6245 39.843 12.7321 39.7161C12.837 39.5919 12.9915 39.5174 13.1543 39.5174H20.3159C20.6637 39.5174 20.7906 39.4843 20.8293 39.4677C20.8734 39.349 20.8734 38.9682 20.8734 38.6287V37.9278C20.8734 37.5414 20.8734 37.0998 20.8127 37.0032C20.8127 37.0088 20.7327 36.9563 20.3132 36.9563H12.7818C12.4782 36.9563 12.2298 36.7079 12.2298 36.4044V33.893C12.2298 33.5894 12.4782 33.341 12.7818 33.341H20.3132C20.6609 33.341 20.7879 33.3079 20.8265 33.2913C20.8707 33.1727 20.8707 32.7918 20.8707 32.4524V31.6714C20.8707 31.285 20.8707 30.8434 20.8099 30.7468C20.8099 30.7551 20.7161 30.6999 20.3104 30.6999H12.986C12.8287 30.6999 12.6769 30.6309 12.572 30.515C12.4672 30.3964 12.4175 30.239 12.4368 30.0817C12.6741 28.1416 13.1267 26.9632 13.9519 26.138C14.8902 25.2025 16.0135 24.783 17.5921 24.783C20.2304 24.783 22.3527 25.8731 23.1419 26.3423C23.2385 26.4002 23.302 26.4223 23.3351 26.4333C23.3544 26.4085 23.3848 26.3588 23.4234 26.2705L24.5743 23.8861C24.6847 23.5852 24.6681 23.4942 24.6653 23.4859C24.6653 23.4859 24.635 23.45 24.5301 23.3948C22.4796 22.2606 19.9958 21.6093 17.7162 21.6093C15.0531 21.6093 12.997 22.2026 11.4295 23.4252C9.50869 24.9624 8.57865 26.9273 8.22264 30.2087C8.19229 30.4874 7.95494 30.6999 7.67345 30.6999H5.16482C4.75637 30.6999 4.66254 30.7524 4.65426 30.7579C4.60735 30.8434 4.60735 31.2822 4.60735 31.6686V32.4496C4.60735 32.7891 4.60735 33.1699 4.6515 33.2886C4.6929 33.3051 4.81709 33.3383 5.16482 33.3383H7.51062C7.8142 33.3383 8.06258 33.5866 8.06258 33.8902V36.4016C8.06258 36.7052 7.8142 36.9536 7.51062 36.9536H5.16482C4.75637 36.9536 4.66254 37.006 4.65426 37.0115C4.60735 37.0971 4.60735 37.5359 4.60735 37.9222V38.6232C4.60735 38.9627 4.60735 39.3435 4.6515 39.4622C4.6929 39.4787 4.81709 39.5119 5.16482 39.5119H7.7176C7.99358 39.5119 8.22816 39.7161 8.26404 39.9893C8.62005 42.6304 9.36519 44.4242 10.6126 45.633C12.1774 47.1978 14.4487 47.8629 18.2102 47.8629C20.0979 47.8629 22.6535 47.3524 24.1575 46.6762C24.4335 46.552 24.7619 46.6762 24.8861 46.9522C25.0103 47.2309 24.8861 47.5566 24.6101 47.6808C22.957 48.4232 20.2663 48.9641 18.2102 48.9641L18.2213 48.9696Z" fill="#D22238"/>
<path d="M31.0461 12.5986C30.5632 12.5986 30.0857 12.3999 29.7435 12.0136L23.1201 4.52908C22.811 4.18135 22.6592 3.73427 22.6868 3.27063C22.7144 2.80699 22.9214 2.38198 23.2719 2.07565L25.2341 0.339753C25.5818 0.0334189 26.0316 -0.121128 26.4925 -0.0935303C26.9561 -0.0659326 27.3812 0.14105 27.6902 0.488781L33.919 7.52895C34.1205 7.75801 34.0984 8.10574 33.8721 8.3072C33.6431 8.50866 33.2953 8.48659 33.0939 8.26028L26.8651 1.22012C26.7519 1.09317 26.5974 1.01866 26.429 1.00762C26.2634 0.996578 26.0979 1.05453 25.9682 1.16492L24.006 2.90082C23.879 3.01397 23.8017 3.16851 23.7935 3.33686C23.7824 3.50521 23.8404 3.67079 23.9508 3.79774L30.5742 11.2822C30.806 11.5444 31.209 11.5692 31.4711 11.3374L32.8179 10.1452C33.047 9.94374 33.3947 9.96306 33.5961 10.1921C33.7976 10.4212 33.7755 10.7689 33.5492 10.9704L32.2025 12.1626C31.8713 12.4551 31.4601 12.5986 31.0516 12.5986H31.0461Z" fill="#D22238"/>
<path d="M22.6249 16.1921C21.8301 16.1921 21.1181 16.0238 20.4668 15.6871C20.235 15.5656 20.0031 15.4442 19.7713 15.32C18.6757 14.7349 17.638 14.183 16.4817 13.9043C16.0291 13.7939 15.5351 13.6862 15.0714 13.689C13.9068 13.6945 12.2289 13.6973 10.8573 13.689C9.72025 13.689 8.79297 12.7617 8.79297 11.6247C8.79297 10.4877 9.72025 9.55762 10.86 9.55762C13.5204 9.56314 16.3796 9.56314 19.1228 9.56314H21.4079C21.7114 9.56314 21.9598 9.80876 21.9598 10.1151C21.9598 10.4214 21.7114 10.667 21.4079 10.667H19.1228C16.374 10.667 13.5177 10.667 10.8573 10.6643C10.3274 10.6643 9.89688 11.0948 9.89688 11.6274C9.89688 12.1601 10.3274 12.5878 10.86 12.5878C12.2316 12.5934 13.9041 12.5878 15.0687 12.5878C15.6758 12.5934 16.2223 12.7065 16.7411 12.8335C18.0354 13.1453 19.1835 13.7552 20.2929 14.3458C20.5192 14.4672 20.7483 14.5887 20.9773 14.7073C21.739 15.102 22.6056 15.1903 23.7012 14.9778C25.1087 14.7046 26.3948 13.976 27.5207 12.8114C27.9209 12.4002 28.3597 11.9089 28.782 11.4343C28.9751 11.219 29.1628 11.0093 29.3422 10.8106C29.5492 10.5843 29.8969 10.5677 30.1232 10.7747C30.3495 10.9789 30.3661 11.3294 30.1591 11.5557C29.9825 11.7489 29.7948 11.9586 29.6044 12.1711C29.1738 12.6541 28.7268 13.1508 28.3128 13.5786C27.0267 14.9116 25.5448 15.745 23.9082 16.0624C23.4584 16.1479 23.0306 16.1921 22.6249 16.1921Z" fill="#D22238"/>
<path d="M2.85676 16.8133C2.27169 16.8133 1.68661 16.5677 1.27817 16.0903C0.530272 15.221 0.632384 13.9046 1.50171 13.1594L7.94301 7.6316C8.04512 7.54329 8.16655 7.4329 8.30454 7.30319C9.30909 6.37039 11.401 4.43303 14.5333 4.3254C15.1322 4.30333 15.789 4.28677 16.4707 4.26745C18.8027 4.20121 22.6967 4.09358 23.2763 3.80933C23.5081 3.6327 23.8393 3.66582 24.0297 3.88936C24.2284 4.12118 24.2008 4.46891 23.9717 4.66761C23.4639 5.10366 21.6591 5.22785 16.5038 5.37136C15.8277 5.39067 15.1708 5.40999 14.5747 5.42931C11.8536 5.52314 10.0349 7.20936 9.06071 8.11456C8.91169 8.25255 8.77922 8.37398 8.66883 8.47057L2.22753 13.9984C1.81908 14.3489 1.77217 14.9643 2.12266 15.3728C2.47315 15.7812 3.08858 15.8281 3.49702 15.4776L7.08472 12.3977C7.19235 12.2984 8.27142 11.338 9.16282 11.0096C9.44984 10.9047 9.76445 11.051 9.87209 11.338C9.97696 11.625 9.83069 11.9424 9.54367 12.0472C8.9586 12.2625 8.09756 12.9718 7.81606 13.2256L4.21732 16.3138C3.82543 16.6505 3.34523 16.8133 2.86504 16.8133H2.85676Z" fill="#D22238"/>
</svg>
