<svg width="48" height="48" viewBox="0 0 48 48" fill="none" xmlns="http://www.w3.org/2000/svg">
<path d="M18.352 32.0263C18.1904 32.0263 18.1558 32.0494 18.1529 32.0523C18.15 32.0581 18.127 32.0927 18.127 32.2744V33.0822C18.127 33.2639 18.1471 33.3014 18.1529 33.3072C18.1529 33.3072 18.1875 33.3303 18.352 33.3303H20.2098L20.23 33.5235C20.6223 37.1988 22.1744 38.5662 25.9622 38.5662C27.1536 38.5662 28.5874 38.3181 29.5278 37.946C29.6778 37.8854 29.7096 37.8537 29.7124 37.8479C29.7096 37.7267 29.6547 37.4931 29.5682 37.1209L29.447 36.6622C29.398 36.4805 29.3634 36.4805 29.3374 36.4805C29.2739 36.4805 29.121 36.5324 28.9422 36.593C28.1748 36.8671 27.0411 37.0459 26.0602 37.0459C23.2937 37.0459 22.5552 35.6583 22.2984 33.5784L22.2696 33.336H27.3353C27.4969 33.336 27.5315 33.313 27.5344 33.3101C27.5373 33.3043 27.5604 33.2668 27.5604 33.0851V32.2773C27.5604 32.0956 27.5402 32.0581 27.5344 32.0523C27.5344 32.0523 27.4998 32.0292 27.3353 32.0292H22.1773V29.9089H27.3353C27.4969 29.9089 27.5315 29.8858 27.5344 29.8829C27.5373 29.8771 27.5604 29.8396 27.5604 29.6579V28.8501C27.5604 28.6684 27.5402 28.6309 27.5344 28.6251C27.5344 28.6251 27.4998 28.602 27.3353 28.602H22.235L22.2494 28.3712C22.4398 25.4085 23.3918 24.2546 25.6477 24.2546C26.7468 24.2546 27.7825 24.5344 28.8124 25.1143C29.0057 25.2354 29.0633 25.2585 29.1701 25.2585C29.2047 25.2585 29.248 25.2124 29.2999 25.1229L29.5942 24.6094C29.8624 24.145 29.8826 24.044 29.8826 23.9575C29.8826 23.9084 29.8567 23.8449 29.6663 23.7238C28.4979 23.0747 27.1045 22.7285 25.6448 22.7285C22.1657 22.7285 20.4896 24.4767 20.2069 28.4001L20.1925 28.602H18.352C18.1904 28.602 18.1558 28.6251 18.1529 28.628C18.15 28.6338 18.127 28.6684 18.127 28.8501V29.6579C18.127 29.8396 18.1471 29.8771 18.1529 29.8829C18.1529 29.8829 18.1875 29.906 18.352 29.906H20.1348V32.0263H18.352Z" fill="#D22238"/>
<path d="M36.8993 48.0013H10.3531C10.0358 48.0013 9.77613 47.7416 9.77613 47.4243C9.77613 47.107 10.0358 46.8474 10.3531 46.8474H36.8993C38.2552 46.8474 39.3572 45.7453 39.3572 44.3895V22.0811L24.007 8.4993L8.65393 22.0811V45.0241C8.65393 45.3415 8.3943 45.6011 8.07697 45.6011C7.75963 45.6011 7.5 45.3415 7.5 45.0241V21.8214C7.5 21.657 7.57212 21.4983 7.69328 21.3887L23.6233 7.29633C23.8426 7.10305 24.1685 7.10305 24.3878 7.29633L40.3149 21.3887C40.439 21.4983 40.5082 21.6541 40.5082 21.8214V44.3895C40.5082 46.38 38.8869 48.0013 36.8964 48.0013H36.8993Z" fill="#D22238"/>
<path d="M47.9077 22.5201C47.7721 22.5201 47.6366 22.471 47.5269 22.3758L24.004 1.55887L0.475349 22.3758C0.235908 22.5864 -0.12758 22.5633 -0.338173 22.3268C-0.548766 22.0902 -0.525687 21.7238 -0.289131 21.5132L23.6232 0.3559C23.8425 0.162617 24.1685 0.162617 24.3877 0.3559L48.2914 21.5104C48.5309 21.721 48.551 22.0873 48.3405 22.3239C48.2251 22.4537 48.0664 22.5172 47.9077 22.5172V22.5201Z" fill="#D22238"/>
<path d="M8.07697 10.9537C7.75963 10.9537 7.5 10.6941 7.5 10.3767V0.576966C7.5 0.259634 7.75963 0 8.07697 0H14.5563C15.5169 0 16.3016 0.78179 16.3016 1.74532V3.63777C16.3016 3.95511 16.042 4.21474 15.7247 4.21474C15.4073 4.21474 15.1477 3.95511 15.1477 3.63777V1.74532C15.1477 1.41934 14.8823 1.15393 14.5563 1.15393H8.65393V10.3767C8.65393 10.6941 8.3943 10.9537 8.07697 10.9537Z" fill="#D22238"/>
</svg>
