<svg width="191" height="60" viewBox="0 0 191 60" fill="none" xmlns="http://www.w3.org/2000/svg">
<g clip-path="url(#clip0_670_807)">
<g clip-path="url(#clip1_670_807)">
<path d="M29.3422 59.6761C10.9037 59.6761 0.728516 49.4685 0.728516 31.0624V28.6645C0.728516 10.2584 10.9037 0.0507812 29.3422 0.0507812H31.7402C50.1786 0.0507812 60.3538 10.226 60.3538 28.6645V31.0624C60.3538 49.5009 50.1786 59.6761 31.7402 59.6761H29.3422Z" fill="#C82832"/>
<path d="M13.5624 24.5808C12.6874 24.0299 11.5857 23.7383 10.4191 23.7383C7.24338 23.7383 5.78516 25.0993 5.78516 25.0993V34.8532H7.59984V26.1363C8.66921 25.3909 10.4191 25.4558 10.4191 25.4558C11.2616 25.4558 12.0393 25.6502 12.5578 26.0066C12.7522 26.1363 13.2059 26.4927 13.2059 27.5945V34.8856H15.053V27.3352C15.053 26.3631 14.5345 25.2613 13.5624 24.6132V24.5808ZM22.7006 30.1545C24.1588 29.9276 25.6495 28.9555 25.6495 27.0436C25.6495 26.0714 25.0662 25.1965 24.1588 24.5808C23.2839 24.0299 22.1821 23.7383 21.0155 23.7383C19.849 23.7383 18.7472 24.0299 17.9046 24.5808C16.9325 25.2289 16.3816 26.2983 16.3816 27.3028V31.7099C16.3816 32.6821 16.9649 33.6542 17.9046 34.2699C18.7472 34.8208 19.849 35.1125 21.0155 35.1125C22.1821 35.1125 23.2191 34.8532 24.1588 34.2699C25.1958 33.6218 25.4874 32.7145 25.7143 32.0664L23.8672 32.1636C23.8672 32.1636 23.6403 32.6497 23.1543 32.9737C22.6358 33.2978 21.8581 33.5246 21.0155 33.5246C20.2054 33.5246 19.3953 33.2978 18.8768 32.9737C18.65 32.7793 18.1639 32.5525 18.2287 31.6775V30.6082C18.2287 30.6082 20.1406 30.5109 22.7006 30.1545ZM18.2287 29.2147V27.4325C18.2287 26.3307 18.7148 25.9418 18.9092 25.8122C19.4601 25.4882 20.2054 25.2613 21.0479 25.2613C21.8905 25.2613 23.0571 25.4882 23.6728 26.2335C23.77 26.3631 24.1912 27.1084 23.7376 28.0482C23.4459 28.599 22.409 28.7935 22.409 28.7935C20.5295 29.1175 18.2287 29.2147 18.2287 29.2147Z" fill="white"/>
<path d="M31.6434 29.5064L35.532 24.1272H33.3608L30.6388 27.9186L27.9492 24.1272H25.7457L29.6343 29.5064L25.6484 34.8533H27.852L30.6388 30.9647L33.4581 34.8533H35.6292L31.6434 29.5064ZM38.416 23.868L36.893 24.5161C36.893 24.5161 36.5689 24.6457 36.5689 25.0021V34.8857H38.416V23.868ZM44.9943 24.5161H42.7583V21.5996L41.2677 22.2477C41.2677 22.2477 40.9436 22.4097 40.9436 22.7662V34.8533H42.7583V26.1363H45.0267V24.5161H44.9943ZM48.8829 31.1267C48.8829 31.1267 50.1143 31.1915 52.9983 30.6082V32.2609C52.9983 32.3257 53.0631 32.9738 51.9938 33.3626C51.6049 33.5247 51.054 33.6219 50.3087 33.6219C48.0727 33.6219 47.0682 32.9738 47.0682 32.9738L46.1932 34.1728C46.2905 34.27 47.5543 35.1125 50.3087 35.1125C51.1836 35.1125 51.9938 34.9829 52.4798 34.7885C53.6464 34.3348 54.5214 33.6219 54.5538 32.1961V24.1272H52.9983V29.1824C52.9983 29.1824 51.216 29.6685 48.9153 29.6685C48.4616 29.6685 47.6191 29.5713 47.4895 28.8583V24.5485H45.934V28.8583C46.0312 30.4138 47.3922 31.1267 48.8829 31.1267Z" fill="white"/>
</g>
<path d="M76.2339 32.5356H73.1554C73.0582 32.5356 73.0582 32.5356 73.0582 32.4383V25.05C73.0582 24.5963 72.8314 24.4991 72.4749 24.4991H71.4056C71.0167 24.4991 70.8223 24.5963 70.8223 25.05V32.8272C70.8223 33.4105 70.9195 33.7345 71.2111 33.9938C71.4704 34.2854 71.8592 34.4151 72.5073 34.4151H76.2339C76.6552 34.4151 76.8172 34.253 76.8172 33.8642V33.0864C76.8172 32.6976 76.6552 32.568 76.2339 32.568V32.5356ZM77.6597 27.5128L79.28 27.448C79.3772 27.448 79.4744 27.3832 79.5392 27.2535C79.5392 27.2535 79.7013 26.9295 80.0253 26.7026C80.2197 26.573 80.803 26.2814 81.7104 26.2814C82.3909 26.2814 83.039 26.4758 83.3954 26.7351C83.5899 26.8647 83.7843 26.9943 83.7843 27.5128V28.1609C83.201 28.1933 81.84 28.2905 80.2197 28.5173H80.1873C78.8911 28.7442 77.4005 29.6515 77.4005 31.4986C77.4005 32.4059 77.919 33.2485 78.8263 33.8318C79.604 34.3502 80.641 34.6419 81.678 34.6419C82.7149 34.6419 83.7519 34.3178 84.5296 33.8318C84.9573 33.5529 85.3107 33.1741 85.5591 32.7281C85.8075 32.282 85.9436 31.7822 85.9554 31.2718V27.5128C85.9554 26.573 85.4045 25.6333 84.5296 25.0824C83.6732 24.5554 82.6834 24.2854 81.678 24.3047C80.6831 24.288 79.7044 24.558 78.8587 25.0824C77.8866 25.6981 77.5625 26.5406 77.3681 27.0915C77.3681 27.1887 77.3681 27.2859 77.4329 27.3832C77.4653 27.448 77.5625 27.5128 77.6597 27.5128ZM83.7843 29.9432V31.1745C83.7843 31.693 83.6223 32.1143 83.3306 32.2763C82.8425 32.5735 82.2819 32.7305 81.7104 32.73H81.678C80.9975 32.73 80.1225 32.5356 79.6688 31.9847C79.6688 31.9847 79.3124 31.4662 79.6688 30.7857C79.7661 30.5264 80.2845 30.3644 80.5762 30.2996C81.7428 30.1052 83.1686 29.9756 83.7843 29.9756V29.9432ZM96.6815 24.4991H95.6445C95.3205 24.4991 95.0937 24.5315 94.9964 24.9852C94.4456 27.448 93.7651 29.9432 93.1818 31.7902C92.5985 29.9432 91.918 27.448 91.3671 24.9852C91.2699 24.5315 91.043 24.4991 90.719 24.4991H89.682C89.52 24.4991 89.3256 24.4991 89.1959 24.6611C89.0663 24.8232 89.1311 24.9852 89.1311 25.0824C89.8569 28.0381 90.722 30.9578 91.7235 33.8318C91.8856 34.253 92.1448 34.4151 92.6633 34.4151H93.7002C94.2187 34.4151 94.478 34.253 94.64 33.8318C95.3529 31.7254 96.4871 28.1609 97.2324 25.0824C97.2324 25.0176 97.2648 24.8232 97.1676 24.6611C97.038 24.5315 96.8435 24.4991 96.6815 24.4991ZM99.76 24.4991H98.723C98.3342 24.4991 98.1397 24.5963 98.1397 25.05V33.8642C98.1397 34.3178 98.3342 34.4151 98.723 34.4151H99.76C100.149 34.4151 100.343 34.3178 100.343 33.8642V25.05C100.343 24.5963 100.149 24.4991 99.76 24.4991ZM109.838 31.4338L108.25 31.4662C108.194 31.473 108.14 31.4945 108.094 31.5287C108.049 31.5628 108.013 31.6083 107.991 31.6606C107.991 31.6606 107.829 31.9847 107.505 32.2115C107.278 32.3735 106.727 32.6652 105.82 32.6652C105.107 32.6652 104.459 32.4383 104.135 32.1791C103.94 32.0495 103.713 31.9199 103.746 31.4014V30.7533C104.297 30.7209 105.69 30.6237 107.31 30.4292C108.607 30.17 110.097 29.2626 110.097 27.4156C110.097 26.5082 109.579 25.6657 108.671 25.0824C107.894 24.5639 106.889 24.3047 105.82 24.3047C104.75 24.3047 103.778 24.5639 103 25.0824C102.573 25.3612 102.219 25.74 101.971 26.1861C101.723 26.6321 101.587 27.132 101.575 27.6424V31.4014C101.575 32.3735 102.093 33.2809 103 33.8642C103.746 34.3502 104.783 34.6419 105.82 34.6419C106.826 34.6648 107.816 34.3946 108.671 33.8642C109.644 33.2161 109.968 32.4059 110.13 31.8226C110.148 31.7749 110.154 31.7236 110.148 31.6729C110.143 31.6223 110.125 31.5736 110.097 31.531C110.064 31.4967 110.023 31.4701 109.978 31.4533C109.934 31.4365 109.886 31.4298 109.838 31.4338ZM103.746 28.971V27.772C103.746 27.2211 103.908 26.7999 104.167 26.6378C104.668 26.3462 105.24 26.2003 105.82 26.2166C106.533 26.2166 107.408 26.411 107.829 26.9619C107.829 26.9619 108.185 27.448 107.829 28.1285C107.732 28.3877 107.213 28.5821 106.954 28.6145C105.755 28.8414 104.362 28.9386 103.713 28.9386L103.746 28.971ZM122.411 31.4338L120.823 31.4662C120.767 31.473 120.713 31.4945 120.668 31.5287C120.622 31.5628 120.586 31.6083 120.564 31.6606C120.564 31.6606 120.402 31.9847 120.078 32.2115C119.851 32.3735 119.3 32.6652 118.393 32.6652C117.68 32.6652 117.064 32.4383 116.708 32.1791C116.513 32.0495 116.287 31.9199 116.319 31.4014V30.7533C116.902 30.7209 118.263 30.6237 119.884 30.4292C121.18 30.17 122.67 29.2626 122.67 27.4156C122.67 26.5082 122.152 25.6657 121.245 25.0824C120.467 24.5639 119.462 24.3047 118.425 24.3047C117.388 24.3047 116.351 24.5639 115.574 25.0824C115.146 25.3612 114.793 25.74 114.544 26.1861C114.296 26.6321 114.16 27.132 114.148 27.6424V31.4014C114.148 32.3735 114.699 33.2809 115.574 33.8318C116.351 34.3502 117.356 34.6419 118.425 34.6419C119.42 34.6585 120.399 34.3886 121.245 33.8642C122.217 33.2161 122.541 32.4059 122.703 31.8226C122.726 31.7774 122.737 31.7275 122.737 31.6768C122.737 31.6262 122.726 31.5762 122.703 31.531C122.666 31.4919 122.62 31.4626 122.569 31.4456C122.518 31.4286 122.464 31.4246 122.411 31.4338ZM116.319 28.971V27.772C116.319 27.2211 116.481 26.7999 116.773 26.6378C117.264 26.352 117.824 26.2063 118.393 26.2166H118.425C119.073 26.2166 119.981 26.411 120.434 26.9619C120.434 26.9619 120.758 27.448 120.434 28.1285C120.305 28.3877 119.786 28.5821 119.527 28.6145C118.328 28.8414 116.935 28.9386 116.319 28.9386V28.971ZM127.758 24.3371C125.068 24.3371 123.805 25.5037 123.74 25.5361C123.679 25.5959 123.644 25.6774 123.643 25.7629V34.1234C123.643 34.2854 123.772 34.4475 123.967 34.4475H125.457C125.619 34.4475 125.781 34.2854 125.781 34.1234V26.7675C126.3 26.4434 127.304 26.3462 127.661 26.3462C127.92 26.3462 129.767 26.3462 129.767 27.61V34.091C129.767 34.2854 129.897 34.4151 130.091 34.4151H131.549C131.744 34.4151 131.873 34.2854 131.873 34.091V27.5776C131.873 25.9249 130.35 24.3371 127.758 24.3371ZM137.544 28.5497L136.086 28.3229C135.6 28.2257 135.341 28.1285 135.179 27.9989C135.049 27.8368 134.984 27.7072 134.984 27.3507V27.2211C134.984 26.8647 135.082 26.6054 135.244 26.5082C135.406 26.411 135.989 26.3138 136.734 26.3138C137.253 26.3138 137.901 26.411 138.581 26.6378C138.776 26.7026 138.938 26.7026 139.067 26.6378C139.165 26.573 139.262 26.4758 139.262 26.3138L139.489 25.4064C139.586 25.05 139.489 24.8556 139.132 24.7583C138.342 24.5299 137.524 24.41 136.702 24.4019C136.183 24.4019 134.498 24.4343 133.721 25.0176C133.105 25.4713 132.813 26.2166 132.813 27.1887V27.3832C132.813 28.1933 133.008 28.8738 133.429 29.3275C133.85 29.8135 134.433 30.008 135.308 30.2024L136.734 30.4292C137.155 30.5264 137.479 30.6237 137.642 30.8181C137.739 30.9153 137.771 31.1421 137.771 31.4662V31.5958C137.771 32.0495 137.706 32.2439 137.544 32.4059C137.35 32.568 136.669 32.6652 135.827 32.6652C135.211 32.6652 134.239 32.4707 133.656 32.2439C133.461 32.1467 133.332 32.2115 133.234 32.2439C133.137 32.2763 133.04 32.4059 133.008 32.6004L132.846 33.4753C132.748 33.929 133.008 34.0586 133.267 34.1234C133.915 34.3826 135.049 34.5771 135.859 34.5771C136.605 34.5771 138.354 34.5123 139.1 33.8642C139.651 33.3457 139.942 32.5356 139.942 31.531V31.3366C139.942 30.494 139.813 29.9432 139.489 29.5219C139.1 29.0358 138.516 28.7442 137.544 28.5497ZM149.081 31.4662L147.493 31.4986C147.436 31.5054 147.382 31.5269 147.337 31.5611C147.291 31.5952 147.256 31.6407 147.233 31.693C147.233 31.693 147.071 32.0171 146.747 32.2439C146.521 32.3735 145.97 32.6652 145.062 32.6652C144.382 32.6652 143.734 32.4707 143.377 32.2115C143.183 32.0819 142.956 31.9523 142.988 31.4338V30.7857C143.572 30.7533 144.933 30.6561 146.553 30.4616C147.849 30.2024 149.34 29.2951 149.34 27.448C149.34 26.5406 148.821 25.6981 147.914 25.1148C147.136 24.5963 146.132 24.3371 145.095 24.3371C144.058 24.3371 143.021 24.5963 142.243 25.1148C141.815 25.3936 141.462 25.7724 141.214 26.2185C140.965 26.6645 140.829 27.1644 140.817 27.6748V31.4338C140.817 32.4059 141.368 33.3133 142.243 33.8642C143.021 34.3826 144.025 34.6743 145.095 34.6743C146.09 34.6909 147.068 34.421 147.914 33.8966C148.886 33.2485 149.21 32.4383 149.372 31.855C149.395 31.8098 149.407 31.7599 149.407 31.7092C149.407 31.6586 149.395 31.6086 149.372 31.5634C149.339 31.5185 149.295 31.4829 149.243 31.4602C149.192 31.4375 149.136 31.4284 149.081 31.4338V31.4662ZM142.988 29.0034V27.772C142.988 27.2535 143.15 26.8647 143.442 26.6702C143.933 26.3844 144.494 26.2387 145.062 26.249H145.095C145.743 26.249 146.65 26.4434 147.104 26.9943C147.104 26.9943 147.428 27.4804 147.104 28.1609C146.974 28.4201 146.456 28.6145 146.196 28.647C144.997 28.8414 143.604 28.971 142.988 28.971V29.0034ZM160.746 24.3695C159.126 24.3695 157.992 24.7907 157.376 25.1472C156.696 24.6935 155.756 24.3695 154.654 24.3695C151.965 24.3695 150.701 25.5361 150.636 25.5685C150.575 25.6283 150.54 25.7098 150.539 25.7953V34.1558C150.539 34.3178 150.668 34.4799 150.863 34.4799H152.353C152.515 34.4799 152.677 34.3178 152.677 34.1558V26.7999C153.164 26.4758 154.201 26.3786 154.557 26.3786C154.816 26.3786 156.631 26.3786 156.631 27.6424V34.1234C156.631 34.3178 156.793 34.4475 156.955 34.4475H158.446C158.608 34.4475 158.77 34.3178 158.77 34.1234V26.7999C159.288 26.4434 160.293 26.3786 160.649 26.3786C160.908 26.3786 162.755 26.3786 162.755 27.6424V34.1234C162.755 34.3178 162.885 34.4475 163.079 34.4475H164.57C164.732 34.4475 164.894 34.3178 164.894 34.1234V27.5776C164.862 25.9249 163.339 24.3371 160.746 24.3371V24.3695ZM172.866 29.0682C173.152 28.8558 173.382 28.5762 173.534 28.2541C173.687 27.9319 173.758 27.5772 173.741 27.2211V26.9943C173.759 26.6368 173.692 26.2801 173.545 25.9534C173.399 25.6267 173.177 25.3394 172.898 25.1148C172.25 24.6287 171.278 24.4019 169.982 24.4019C169.334 24.4019 167.357 24.4343 166.774 24.5315C166.255 24.5963 166.126 24.7908 166.126 25.3416V33.5725C166.126 34.1234 166.288 34.3178 166.806 34.3826L170.047 34.4475C171.602 34.4475 172.704 34.1882 173.417 33.6373C174.032 33.1837 174.324 32.4383 174.324 31.4986V31.3042C174.324 30.2348 173.806 29.4571 172.866 29.0682ZM171.472 27.3507C171.472 28.0961 171.051 28.3877 170.079 28.3877H168.329V26.2814L170.273 26.249C170.695 26.249 171.019 26.3138 171.213 26.4758C171.375 26.6054 171.472 26.8323 171.472 27.1239V27.3183V27.3507ZM168.329 30.17H170.435C171.019 30.17 171.408 30.2672 171.667 30.4292C171.926 30.6237 172.056 30.9153 172.056 31.2718V31.4662C172.056 31.8226 171.926 32.1143 171.732 32.2763C171.408 32.4707 171.019 32.568 170.371 32.568C169.69 32.5634 169.009 32.5418 168.329 32.5031V30.17ZM180.611 32.5356H177.5C177.403 32.5356 177.403 32.5356 177.403 32.4383V25.05C177.403 24.5963 177.208 24.4991 176.819 24.4991H175.782C175.426 24.4991 175.199 24.5963 175.199 25.05V32.8272C175.199 33.4105 175.329 33.7345 175.588 33.9938C175.879 34.2854 176.268 34.4151 176.884 34.4151H180.643C181.064 34.4151 181.226 34.253 181.226 33.8642V33.0864C181.226 32.6976 181.064 32.568 180.643 32.568L180.611 32.5356ZM189.684 31.4014L188.129 31.4662C188.066 31.4672 188.006 31.4861 187.954 31.5206C187.903 31.555 187.862 31.6037 187.837 31.6606C187.837 31.6606 187.675 31.9847 187.351 32.2115C187.124 32.3411 186.573 32.6328 185.666 32.6328C184.985 32.6328 184.337 32.4383 183.981 32.1791C183.786 32.0495 183.592 31.9199 183.592 31.4014V30.7533C184.175 30.7209 185.536 30.6237 187.156 30.4292C188.453 30.17 189.943 29.2626 189.943 27.4156C189.943 26.5082 189.425 25.6657 188.517 25.0824C187.74 24.5639 186.735 24.3047 185.698 24.3047C184.661 24.3047 183.624 24.5639 182.847 25.0824C182.419 25.3612 182.066 25.74 181.817 26.1861C181.569 26.6321 181.433 27.132 181.421 27.6424V31.4014C181.421 32.3735 181.972 33.2809 182.847 33.8318C183.624 34.3502 184.629 34.6419 185.698 34.6419C186.693 34.6585 187.672 34.3886 188.517 33.8642C189.49 33.2161 189.814 32.4059 190.008 31.8226C190.021 31.7724 190.023 31.7197 190.011 31.6689C190 31.6181 189.977 31.5708 189.943 31.531C189.913 31.4908 189.874 31.4581 189.829 31.4356C189.784 31.4131 189.734 31.4014 189.684 31.4014ZM183.592 28.971V27.7396C183.592 27.2211 183.754 26.8323 184.046 26.6378C184.537 26.352 185.097 26.2063 185.666 26.2166H185.698C186.379 26.2166 187.254 26.411 187.707 26.9619C187.707 26.9619 188.031 27.448 187.707 28.1285C187.578 28.3877 187.059 28.5821 186.8 28.6145C185.633 28.809 184.208 28.9386 183.592 28.9386" fill="#2B2B2B"/>
</g>
<defs>
<clipPath id="clip0_670_807">
<rect width="190.02" height="60" fill="white"/>
</clipPath>
<clipPath id="clip1_670_807">
<rect width="60.7595" height="60" fill="white"/>
</clipPath>
</defs>
</svg>
