<svg width="191" height="60" viewBox="0 0 191 60" fill="none" xmlns="http://www.w3.org/2000/svg">
<g clip-path="url(#clip0_220_889)">
<g clip-path="url(#clip1_220_889)">
<path d="M29.3432 59.6761C10.9047 59.6761 0.729492 49.4685 0.729492 31.0624V28.6645C0.729492 10.2584 10.9047 0.0507812 29.3432 0.0507812H31.7411C50.1796 0.0507812 60.3548 10.226 60.3548 28.6645V31.0624C60.3548 49.5009 50.1796 59.6761 31.7411 59.6761H29.3432Z" fill="#C82832"/>
<path d="M13.5614 24.5813C12.6865 24.0304 11.5847 23.7388 10.4181 23.7388C7.24241 23.7388 5.78418 25.0998 5.78418 25.0998V34.8537H7.59886V26.1367C8.66823 25.3914 10.4181 25.4562 10.4181 25.4562C11.2606 25.4562 12.0384 25.6507 12.5568 26.0071C12.7513 26.1367 13.2049 26.4932 13.2049 27.595V34.8861H15.052V27.3357C15.052 26.3636 14.5335 25.2618 13.5614 24.6137V24.5813ZM22.6996 30.155C24.1579 29.9281 25.6485 28.956 25.6485 27.0441C25.6485 26.0719 25.0652 25.197 24.1579 24.5813C23.2829 24.0304 22.1811 23.7388 21.0146 23.7388C19.848 23.7388 18.7462 24.0304 17.9037 24.5813C16.9315 25.2294 16.3806 26.2988 16.3806 27.3033V31.7104C16.3806 32.6826 16.9639 33.6547 17.9037 34.2704C18.7462 34.8213 19.848 35.1129 21.0146 35.1129C22.1811 35.1129 23.2181 34.8537 24.1579 34.2704C25.1948 33.6223 25.4865 32.715 25.7133 32.0669L23.8662 32.1641C23.8662 32.1641 23.6394 32.6502 23.1533 32.9742C22.6348 33.2983 21.8571 33.5251 21.0146 33.5251C20.2044 33.5251 19.3943 33.2983 18.8758 32.9742C18.649 32.7798 18.1629 32.5529 18.2277 31.678V30.6086C18.2277 30.6086 20.1396 30.5114 22.6996 30.155ZM18.2277 29.2152V27.4329C18.2277 26.3312 18.7138 25.9423 18.9082 25.8127C19.4591 25.4886 20.2044 25.2618 21.047 25.2618C21.8895 25.2618 23.0561 25.4886 23.6718 26.234C23.769 26.3636 24.1903 27.1089 23.7366 28.0486C23.4449 28.5995 22.408 28.794 22.408 28.794C20.5285 29.118 18.2277 29.2152 18.2277 29.2152Z" fill="white"/>
<path d="M31.6434 29.5069L35.532 24.1277H33.3608L30.6388 27.9191L27.9492 24.1277H25.7457L29.6343 29.5069L25.6484 34.8538H27.852L30.6388 30.9652L33.4581 34.8538H35.6292L31.6434 29.5069ZM38.416 23.8685L36.893 24.5166C36.893 24.5166 36.5689 24.6462 36.5689 25.0026V34.8862H38.416V23.8685ZM44.9943 24.5166H42.7583V21.6001L41.2677 22.2482C41.2677 22.2482 40.9436 22.4102 40.9436 22.7667V34.8538H42.7583V26.1368H45.0267V24.5166H44.9943ZM48.8829 31.1272C48.8829 31.1272 50.1143 31.192 52.9983 30.6087V32.2614C52.9983 32.3262 53.0631 32.9743 51.9938 33.3631C51.6049 33.5252 51.054 33.6224 50.3087 33.6224C48.0727 33.6224 47.0682 32.9743 47.0682 32.9743L46.1932 34.1733C46.2905 34.2705 47.5543 35.113 50.3087 35.113C51.1836 35.113 51.9938 34.9834 52.4798 34.789C53.6464 34.3353 54.5214 33.6224 54.5538 32.1965V24.1277H52.9983V29.1829C52.9983 29.1829 51.216 29.669 48.9153 29.669C48.4616 29.669 47.6191 29.5717 47.4895 28.8588V24.549H45.934V28.8588C46.0312 30.4143 47.3922 31.1272 48.8829 31.1272Z" fill="white"/>
</g>
<path d="M76.2349 32.5356H73.1564C73.0592 32.5356 73.0592 32.5356 73.0592 32.4383V25.05C73.0592 24.5963 72.8324 24.4991 72.4759 24.4991H71.4065C71.0177 24.4991 70.8232 24.5963 70.8232 25.05V32.8272C70.8232 33.4105 70.9205 33.7345 71.2121 33.9938C71.4713 34.2854 71.8602 34.4151 72.5083 34.4151H76.2349C76.6562 34.4151 76.8182 34.253 76.8182 33.8642V33.0864C76.8182 32.6976 76.6562 32.568 76.2349 32.568V32.5356ZM77.6607 27.5128L79.281 27.448C79.3782 27.448 79.4754 27.3832 79.5402 27.2535C79.5402 27.2535 79.7022 26.9295 80.0263 26.7026C80.2207 26.573 80.804 26.2814 81.7113 26.2814C82.3919 26.2814 83.04 26.4758 83.3964 26.7351C83.5908 26.8647 83.7853 26.9943 83.7853 27.5128V28.1609C83.202 28.1933 81.841 28.2905 80.2207 28.5173H80.1883C78.8921 28.7442 77.4015 29.6515 77.4015 31.4986C77.4015 32.4059 77.92 33.2485 78.8273 33.8318C79.605 34.3502 80.642 34.6419 81.6789 34.6419C82.7159 34.6419 83.7529 34.3178 84.5306 33.8318C84.9583 33.5529 85.3116 33.1741 85.5601 32.7281C85.8085 32.282 85.9445 31.7822 85.9564 31.2718V27.5128C85.9564 26.573 85.4055 25.6333 84.5306 25.0824C83.6741 24.5554 82.6844 24.2854 81.6789 24.3047C80.684 24.288 79.7053 24.558 78.8597 25.0824C77.8875 25.6981 77.5635 26.5406 77.3691 27.0915C77.3691 27.1887 77.3691 27.2859 77.4339 27.3832C77.4663 27.448 77.5635 27.5128 77.6607 27.5128ZM83.7853 29.9432V31.1745C83.7853 31.693 83.6232 32.1143 83.3316 32.2763C82.8434 32.5735 82.2829 32.7305 81.7113 32.73H81.6789C80.9984 32.73 80.1235 32.5356 79.6698 31.9847C79.6698 31.9847 79.3134 31.4662 79.6698 30.7857C79.767 30.5264 80.2855 30.3644 80.5772 30.2996C81.7438 30.1052 83.1696 29.9756 83.7853 29.9756V29.9432ZM96.6825 24.4991H95.6455C95.3215 24.4991 95.0946 24.5315 94.9974 24.9852C94.4465 27.448 93.766 29.9432 93.1827 31.7902C92.5994 29.9432 91.9189 27.448 91.3681 24.9852C91.2708 24.5315 91.044 24.4991 90.72 24.4991H89.683C89.521 24.4991 89.3265 24.4991 89.1969 24.6611C89.0673 24.8232 89.1321 24.9852 89.1321 25.0824C89.8579 28.0381 90.723 30.9578 91.7245 33.8318C91.8865 34.253 92.1458 34.4151 92.6643 34.4151H93.7012C94.2197 34.4151 94.4789 34.253 94.641 33.8318C95.3539 31.7254 96.4881 28.1609 97.2334 25.0824C97.2334 25.0176 97.2658 24.8232 97.1686 24.6611C97.0389 24.5315 96.8445 24.4991 96.6825 24.4991ZM99.761 24.4991H98.724C98.3351 24.4991 98.1407 24.5963 98.1407 25.05V33.8642C98.1407 34.3178 98.3351 34.4151 98.724 34.4151H99.761C100.15 34.4151 100.344 34.3178 100.344 33.8642V25.05C100.344 24.5963 100.15 24.4991 99.761 24.4991ZM109.839 31.4338L108.251 31.4662C108.195 31.473 108.141 31.4945 108.095 31.5287C108.05 31.5628 108.014 31.6083 107.992 31.6606C107.992 31.6606 107.83 31.9847 107.506 32.2115C107.279 32.3735 106.728 32.6652 105.821 32.6652C105.108 32.6652 104.46 32.4383 104.136 32.1791C103.941 32.0495 103.714 31.9199 103.747 31.4014V30.7533C104.298 30.7209 105.691 30.6237 107.311 30.4292C108.608 30.17 110.098 29.2626 110.098 27.4156C110.098 26.5082 109.58 25.6657 108.672 25.0824C107.895 24.5639 106.89 24.3047 105.821 24.3047C104.751 24.3047 103.779 24.5639 103.001 25.0824C102.574 25.3612 102.22 25.74 101.972 26.1861C101.724 26.6321 101.588 27.132 101.576 27.6424V31.4014C101.576 32.3735 102.094 33.2809 103.001 33.8642C103.747 34.3502 104.784 34.6419 105.821 34.6419C106.827 34.6648 107.817 34.3946 108.672 33.8642C109.645 33.2161 109.969 32.4059 110.131 31.8226C110.149 31.7749 110.155 31.7236 110.149 31.6729C110.144 31.6223 110.126 31.5736 110.098 31.531C110.065 31.4967 110.024 31.4701 109.979 31.4533C109.935 31.4365 109.887 31.4298 109.839 31.4338ZM103.747 28.971V27.772C103.747 27.2211 103.909 26.7999 104.168 26.6378C104.669 26.3462 105.241 26.2003 105.821 26.2166C106.534 26.2166 107.409 26.411 107.83 26.9619C107.83 26.9619 108.186 27.448 107.83 28.1285C107.733 28.3877 107.214 28.5821 106.955 28.6145C105.756 28.8414 104.362 28.9386 103.714 28.9386L103.747 28.971ZM122.412 31.4338L120.824 31.4662C120.768 31.473 120.714 31.4945 120.669 31.5287C120.623 31.5628 120.587 31.6083 120.565 31.6606C120.565 31.6606 120.403 31.9847 120.079 32.2115C119.852 32.3735 119.301 32.6652 118.394 32.6652C117.681 32.6652 117.065 32.4383 116.709 32.1791C116.514 32.0495 116.288 31.9199 116.32 31.4014V30.7533C116.903 30.7209 118.264 30.6237 119.885 30.4292C121.181 30.17 122.671 29.2626 122.671 27.4156C122.671 26.5082 122.153 25.6657 121.246 25.0824C120.468 24.5639 119.463 24.3047 118.426 24.3047C117.389 24.3047 116.352 24.5639 115.575 25.0824C115.147 25.3612 114.794 25.74 114.545 26.1861C114.297 26.6321 114.161 27.132 114.149 27.6424V31.4014C114.149 32.3735 114.7 33.2809 115.575 33.8318C116.352 34.3502 117.357 34.6419 118.426 34.6419C119.421 34.6585 120.4 34.3886 121.246 33.8642C122.218 33.2161 122.542 32.4059 122.704 31.8226C122.727 31.7774 122.738 31.7275 122.738 31.6768C122.738 31.6262 122.727 31.5762 122.704 31.531C122.667 31.4919 122.621 31.4626 122.57 31.4456C122.519 31.4286 122.465 31.4246 122.412 31.4338ZM116.32 28.971V27.772C116.32 27.2211 116.482 26.7999 116.774 26.6378C117.265 26.352 117.825 26.2063 118.394 26.2166H118.426C119.074 26.2166 119.982 26.411 120.435 26.9619C120.435 26.9619 120.759 27.448 120.435 28.1285C120.306 28.3877 119.787 28.5821 119.528 28.6145C118.329 28.8414 116.936 28.9386 116.32 28.9386V28.971ZM127.759 24.3371C125.069 24.3371 123.806 25.5037 123.741 25.5361C123.68 25.5959 123.645 25.6774 123.644 25.7629V34.1234C123.644 34.2854 123.773 34.4475 123.968 34.4475H125.458C125.62 34.4475 125.782 34.2854 125.782 34.1234V26.7675C126.301 26.4434 127.305 26.3462 127.662 26.3462C127.921 26.3462 129.768 26.3462 129.768 27.61V34.091C129.768 34.2854 129.898 34.4151 130.092 34.4151H131.55C131.745 34.4151 131.874 34.2854 131.874 34.091V27.5776C131.874 25.9249 130.351 24.3371 127.759 24.3371ZM137.545 28.5497L136.087 28.3229C135.601 28.2257 135.342 28.1285 135.18 27.9989C135.05 27.8368 134.985 27.7072 134.985 27.3507V27.2211C134.985 26.8647 135.082 26.6054 135.245 26.5082C135.407 26.411 135.99 26.3138 136.735 26.3138C137.254 26.3138 137.902 26.411 138.582 26.6378C138.777 26.7026 138.939 26.7026 139.068 26.6378C139.166 26.573 139.263 26.4758 139.263 26.3138L139.49 25.4064C139.587 25.05 139.49 24.8556 139.133 24.7583C138.343 24.5299 137.525 24.41 136.703 24.4019C136.184 24.4019 134.499 24.4343 133.721 25.0176C133.106 25.4713 132.814 26.2166 132.814 27.1887V27.3832C132.814 28.1933 133.009 28.8738 133.43 29.3275C133.851 29.8135 134.434 30.008 135.309 30.2024L136.735 30.4292C137.156 30.5264 137.48 30.6237 137.642 30.8181C137.74 30.9153 137.772 31.1421 137.772 31.4662V31.5958C137.772 32.0495 137.707 32.2439 137.545 32.4059C137.351 32.568 136.67 32.6652 135.828 32.6652C135.212 32.6652 134.24 32.4707 133.657 32.2439C133.462 32.1467 133.333 32.2115 133.235 32.2439C133.138 32.2763 133.041 32.4059 133.009 32.6004L132.847 33.4753C132.749 33.929 133.009 34.0586 133.268 34.1234C133.916 34.3826 135.05 34.5771 135.86 34.5771C136.606 34.5771 138.355 34.5123 139.101 33.8642C139.652 33.3457 139.943 32.5356 139.943 31.531V31.3366C139.943 30.494 139.814 29.9432 139.49 29.5219C139.101 29.0358 138.517 28.7442 137.545 28.5497ZM149.081 31.4662L147.494 31.4986C147.437 31.5054 147.383 31.5269 147.338 31.5611C147.292 31.5952 147.257 31.6407 147.234 31.693C147.234 31.693 147.072 32.0171 146.748 32.2439C146.521 32.3735 145.971 32.6652 145.063 32.6652C144.383 32.6652 143.735 32.4707 143.378 32.2115C143.184 32.0819 142.957 31.9523 142.989 31.4338V30.7857C143.573 30.7533 144.934 30.6561 146.554 30.4616C147.85 30.2024 149.341 29.2951 149.341 27.448C149.341 26.5406 148.822 25.6981 147.915 25.1148C147.137 24.5963 146.133 24.3371 145.096 24.3371C144.059 24.3371 143.022 24.5963 142.244 25.1148C141.816 25.3936 141.463 25.7724 141.215 26.2185C140.966 26.6645 140.83 27.1644 140.818 27.6748V31.4338C140.818 32.4059 141.369 33.3133 142.244 33.8642C143.022 34.3826 144.026 34.6743 145.096 34.6743C146.091 34.6909 147.069 34.421 147.915 33.8966C148.887 33.2485 149.211 32.4383 149.373 31.855C149.396 31.8098 149.408 31.7599 149.408 31.7092C149.408 31.6586 149.396 31.6086 149.373 31.5634C149.34 31.5185 149.295 31.4829 149.244 31.4602C149.193 31.4375 149.137 31.4284 149.081 31.4338V31.4662ZM142.989 29.0034V27.772C142.989 27.2535 143.151 26.8647 143.443 26.6702C143.934 26.3844 144.495 26.2387 145.063 26.249H145.096C145.744 26.249 146.651 26.4434 147.105 26.9943C147.105 26.9943 147.429 27.4804 147.105 28.1609C146.975 28.4201 146.457 28.6145 146.197 28.647C144.998 28.8414 143.605 28.971 142.989 28.971V29.0034ZM160.747 24.3695C159.127 24.3695 157.993 24.7907 157.377 25.1472C156.697 24.6935 155.757 24.3695 154.655 24.3695C151.966 24.3695 150.702 25.5361 150.637 25.5685C150.576 25.6283 150.541 25.7098 150.54 25.7953V34.1558C150.54 34.3178 150.669 34.4799 150.864 34.4799H152.354C152.516 34.4799 152.678 34.3178 152.678 34.1558V26.7999C153.165 26.4758 154.201 26.3786 154.558 26.3786C154.817 26.3786 156.632 26.3786 156.632 27.6424V34.1234C156.632 34.3178 156.794 34.4475 156.956 34.4475H158.447C158.609 34.4475 158.771 34.3178 158.771 34.1234V26.7999C159.289 26.4434 160.294 26.3786 160.65 26.3786C160.909 26.3786 162.756 26.3786 162.756 27.6424V34.1234C162.756 34.3178 162.886 34.4475 163.08 34.4475H164.571C164.733 34.4475 164.895 34.3178 164.895 34.1234V27.5776C164.863 25.9249 163.34 24.3371 160.747 24.3371V24.3695ZM172.867 29.0682C173.153 28.8558 173.383 28.5762 173.535 28.2541C173.688 27.9319 173.759 27.5772 173.742 27.2211V26.9943C173.76 26.6368 173.693 26.2801 173.546 25.9534C173.4 25.6267 173.178 25.3394 172.899 25.1148C172.251 24.6287 171.279 24.4019 169.983 24.4019C169.335 24.4019 167.358 24.4343 166.775 24.5315C166.256 24.5963 166.127 24.7908 166.127 25.3416V33.5725C166.127 34.1234 166.289 34.3178 166.807 34.3826L170.048 34.4475C171.603 34.4475 172.705 34.1882 173.418 33.6373C174.033 33.1837 174.325 32.4383 174.325 31.4986V31.3042C174.325 30.2348 173.807 29.4571 172.867 29.0682ZM171.473 27.3507C171.473 28.0961 171.052 28.3877 170.08 28.3877H168.33V26.2814L170.274 26.249C170.696 26.249 171.02 26.3138 171.214 26.4758C171.376 26.6054 171.473 26.8323 171.473 27.1239V27.3183V27.3507ZM168.33 30.17H170.436C171.02 30.17 171.409 30.2672 171.668 30.4292C171.927 30.6237 172.057 30.9153 172.057 31.2718V31.4662C172.057 31.8226 171.927 32.1143 171.733 32.2763C171.409 32.4707 171.02 32.568 170.372 32.568C169.691 32.5634 169.01 32.5418 168.33 32.5031V30.17ZM180.612 32.5356H177.501C177.404 32.5356 177.404 32.5356 177.404 32.4383V25.05C177.404 24.5963 177.209 24.4991 176.82 24.4991H175.783C175.427 24.4991 175.2 24.5963 175.2 25.05V32.8272C175.2 33.4105 175.33 33.7345 175.589 33.9938C175.88 34.2854 176.269 34.4151 176.885 34.4151H180.644C181.065 34.4151 181.227 34.253 181.227 33.8642V33.0864C181.227 32.6976 181.065 32.568 180.644 32.568L180.612 32.5356ZM189.685 31.4014L188.13 31.4662C188.067 31.4672 188.007 31.4861 187.955 31.5206C187.904 31.555 187.863 31.6037 187.838 31.6606C187.838 31.6606 187.676 31.9847 187.352 32.2115C187.125 32.3411 186.574 32.6328 185.667 32.6328C184.986 32.6328 184.338 32.4383 183.982 32.1791C183.787 32.0495 183.593 31.9199 183.593 31.4014V30.7533C184.176 30.7209 185.537 30.6237 187.157 30.4292C188.454 30.17 189.944 29.2626 189.944 27.4156C189.944 26.5082 189.426 25.6657 188.518 25.0824C187.741 24.5639 186.736 24.3047 185.699 24.3047C184.662 24.3047 183.625 24.5639 182.848 25.0824C182.42 25.3612 182.067 25.74 181.818 26.1861C181.57 26.6321 181.434 27.132 181.422 27.6424V31.4014C181.422 32.3735 181.973 33.2809 182.848 33.8318C183.625 34.3502 184.63 34.6419 185.699 34.6419C186.694 34.6585 187.673 34.3886 188.518 33.8642C189.491 33.2161 189.815 32.4059 190.009 31.8226C190.022 31.7724 190.024 31.7197 190.012 31.6689C190.001 31.6181 189.978 31.5708 189.944 31.531C189.914 31.4908 189.875 31.4581 189.83 31.4356C189.785 31.4131 189.735 31.4014 189.685 31.4014ZM183.593 28.971V27.7396C183.593 27.2211 183.755 26.8323 184.047 26.6378C184.538 26.352 185.098 26.2063 185.667 26.2166H185.699C186.38 26.2166 187.255 26.411 187.708 26.9619C187.708 26.9619 188.032 27.448 187.708 28.1285C187.579 28.3877 187.06 28.5821 186.801 28.6145C185.634 28.809 184.209 28.9386 183.593 28.9386" fill="#2B2B2B"/>
</g>
<defs>
<clipPath id="clip0_220_889">
<rect width="190.02" height="60" fill="white"/>
</clipPath>
<clipPath id="clip1_220_889">
<rect width="60.7595" height="60" fill="white"/>
</clipPath>
</defs>
</svg>
