<svg width="44" height="45" viewBox="0 0 44 45" fill="none" xmlns="http://www.w3.org/2000/svg">
<g filter="url(#filter0_i_776_6810)">
<circle cx="21.9905" cy="22.5003" r="21.9905" fill="white"/>
</g>
<g clip-path="url(#clip0_776_6810)">
<path d="M27.1234 13.5711V9.68614H24.9244V11.592L21.9923 8.95312L14.6621 15.5503H16.8612V21.4144H20.5263V17.0163H23.4583V21.4144H27.1234V15.5503H29.3225L27.1234 13.5711Z" fill="black"/>
</g>
<path d="M17.6451 29.4988C18.2784 29.4988 18.5819 29.7495 18.5819 30.2641V30.3697C18.5819 30.9766 18.318 31.2405 17.3944 31.6495L16.827 31.9002C15.3361 32.5599 14.7819 33.3912 14.7819 35.1064V35.9509C14.7819 36.2543 14.8743 36.3467 15.2305 36.3467H20.3235C20.6929 36.3467 20.7721 36.2279 20.7721 35.9509V35.08C20.7721 34.737 20.7193 34.6446 20.3235 34.6446H16.8666V34.4995C16.8666 33.9585 17.1041 33.7474 18.3576 33.1405L19.0437 32.8106C20.218 32.2432 20.8117 31.5571 20.8117 30.1585V30.0002C20.8117 28.4037 19.7693 27.6912 18.0805 27.6912H18.0409C17.0777 27.6912 16.0617 27.9023 15.3361 28.2058C15.0986 28.2981 15.059 28.4433 15.1249 28.694L15.3624 29.644C15.4152 29.8551 15.534 29.921 15.7715 29.8419C16.3916 29.6308 17.0777 29.4988 17.5923 29.4988H17.6451ZM23.9002 32.8634L25.7342 29.8947H25.7474V32.8634H23.9002ZM28.571 34.5259C28.9008 34.5259 28.9404 34.4599 28.9404 34.1696V33.2196C28.9404 32.9294 28.9008 32.8634 28.571 32.8634H27.8849V28.3641C27.8849 27.9155 27.7925 27.81 27.3439 27.81H25.7474C25.378 27.81 25.2328 27.8759 25.0085 28.2322L22.2509 32.6787C21.987 33.1009 21.9474 33.2328 21.9474 33.7738V34.0905C21.9474 34.4467 22.0266 34.5259 22.3829 34.5259H25.7474V35.9113C25.7474 36.3203 25.8661 36.3467 26.2488 36.3467H27.4099C27.7793 36.3467 27.8849 36.3203 27.8849 35.9113V34.5259H28.571Z" fill="black"/>
<defs>
<filter id="filter0_i_776_6810" x="0" y="0.509766" width="43.9805" height="43.9814" filterUnits="userSpaceOnUse" color-interpolation-filters="sRGB">
<feFlood flood-opacity="0" result="BackgroundImageFix"/>
<feBlend mode="normal" in="SourceGraphic" in2="BackgroundImageFix" result="shape"/>
<feColorMatrix in="SourceAlpha" type="matrix" values="0 0 0 0 0 0 0 0 0 0 0 0 0 0 0 0 0 0 127 0" result="hardAlpha"/>
<feOffset dy="-1.09953"/>
<feComposite in2="hardAlpha" operator="arithmetic" k2="-1" k3="1"/>
<feColorMatrix type="matrix" values="0 0 0 0 0.909804 0 0 0 0 0.909804 0 0 0 0 0.909804 0 0 0 1 0"/>
<feBlend mode="normal" in2="shape" result="effect1_innerShadow_776_6810"/>
</filter>
<clipPath id="clip0_776_6810">
<rect width="17.5924" height="17.5924" fill="white" transform="translate(13.1934 6.75391)"/>
</clipPath>
</defs>
</svg>
