<svg width="140" height="26" viewBox="0 0 140 26" fill="none" xmlns="http://www.w3.org/2000/svg">
<rect width="140" height="26" rx="3" fill="#FFBA4C"/>
<path d="M18.2197 9.99992L16.7063 8.48659C16.753 8.20659 16.8263 7.94659 16.9197 7.71992C16.973 7.59992 16.9997 7.47325 16.9997 7.33325C16.9997 6.77992 16.553 6.33325 15.9997 6.33325C14.9063 6.33325 13.9397 6.85992 13.333 7.66659H9.99967C7.97301 7.66659 6.33301 9.30659 6.33301 11.3333C6.33301 13.3599 7.99967 18.9999 7.99967 18.9999H11.6663V17.6666H12.9997V18.9999H16.6663L17.7863 15.2733L19.6663 14.6466V9.99992H18.2197ZM13.6663 10.9999H10.333V9.66659H13.6663V10.9999ZM15.6663 12.3333C15.2997 12.3333 14.9997 12.0333 14.9997 11.6666C14.9997 11.2999 15.2997 10.9999 15.6663 10.9999C16.033 10.9999 16.333 11.2999 16.333 11.6666C16.333 12.0333 16.033 12.3333 15.6663 12.3333Z" fill="white"/>
<path d="M29.6707 9.798C30.3467 9.798 30.6457 9.876 30.9057 10.084C31.1397 10.279 31.2437 10.552 31.2437 11.085V11.254C31.2437 12.307 30.8147 12.684 29.6317 12.684H28.8257V10.006C28.8257 9.902 28.8777 9.837 28.9687 9.824C29.1637 9.798 29.4367 9.798 29.6707 9.798ZM28.8257 14.049H29.5797C30.6587 14.049 31.4647 13.88 32.0757 13.399C32.6217 12.97 32.9207 12.281 32.9207 11.319V11.085C32.9207 10.136 32.6867 9.486 32.1537 9.07C31.5947 8.628 30.7497 8.472 29.6317 8.472C28.8387 8.472 28.1497 8.485 27.6427 8.55C27.2917 8.589 27.1877 8.706 27.1877 9.096V16.675C27.1877 16.948 27.2527 17 27.5387 17H28.4747C28.7607 17 28.8257 16.948 28.8257 16.675V14.049ZM36.8025 10.253C37.1405 11.358 37.4785 12.541 37.8035 13.698H35.6455C35.9705 12.541 36.3085 11.358 36.6465 10.253H36.8025ZM35.2685 15.063H38.1805L38.6095 16.662C38.6875 16.948 38.8305 17 39.1685 17H39.8575C40.2215 17 40.4165 17 40.3255 16.662C39.5975 14.023 38.6615 11.085 37.9205 9.057C37.7775 8.654 37.5695 8.589 37.0365 8.589H36.3995C35.8665 8.589 35.6845 8.654 35.5415 9.057C34.8135 11.085 33.8385 14.023 33.1105 16.662C33.0195 17 33.2275 17 33.5915 17H34.2805C34.6185 17 34.7615 16.948 34.8395 16.662L35.2685 15.063ZM44.4509 8.472C43.4499 8.472 42.7089 8.667 42.1759 9.083C41.3179 9.772 41.0449 10.721 41.0449 12.541V13.061C41.0449 14.764 41.2789 15.739 41.9029 16.363C42.4489 16.909 43.2159 17.117 44.4249 17.117C45.1789 17.117 45.9329 16.961 46.5569 16.714C46.8689 16.597 46.8819 16.48 46.8299 16.246L46.6739 15.622C46.6219 15.401 46.4789 15.336 46.2839 15.414C45.8029 15.622 45.1789 15.765 44.6199 15.765C43.9049 15.765 43.4239 15.596 43.1639 15.284C42.8519 14.907 42.7219 14.257 42.7219 12.905V12.671C42.7219 11.384 42.8129 10.63 43.2159 10.227C43.4889 9.954 43.8139 9.824 44.4509 9.824C45.0099 9.824 45.5949 9.993 46.1409 10.292C46.2969 10.383 46.4789 10.396 46.5569 10.214L46.8689 9.434C46.9469 9.226 46.9209 9.135 46.7779 9.057C46.1409 8.68 45.2829 8.472 44.4509 8.472ZM49.8745 13.347H50.2645C50.4595 13.347 50.5375 13.412 50.6155 13.542L52.5395 16.753C52.6565 16.948 52.7475 17 53.0595 17H54.1125C54.4115 17 54.5025 16.883 54.3725 16.675L51.9415 12.879C51.8895 12.801 51.8115 12.684 51.8115 12.619C51.8115 12.541 51.8895 12.45 51.9415 12.372L54.3465 8.966C54.5155 8.719 54.4115 8.589 54.0995 8.589H53.0595C52.7605 8.589 52.6695 8.654 52.5395 8.849L50.5635 11.813C50.4725 11.943 50.4075 12.008 50.2125 12.008H49.8745V8.914C49.8745 8.641 49.8095 8.589 49.5235 8.589H48.5875C48.3015 8.589 48.2365 8.641 48.2365 8.914V16.675C48.2365 16.948 48.3015 17 48.5875 17H49.5235C49.8095 17 49.8745 16.948 49.8745 16.675V13.347ZM60.8885 9.798C61.5645 9.798 61.8635 9.876 62.1235 10.084C62.3575 10.279 62.4615 10.552 62.4615 11.085V11.254C62.4615 12.307 62.0325 12.684 60.8495 12.684H60.0435V10.006C60.0435 9.902 60.0955 9.837 60.1865 9.824C60.3815 9.798 60.6545 9.798 60.8885 9.798ZM60.0435 14.049H60.7975C61.8765 14.049 62.6825 13.88 63.2935 13.399C63.8395 12.97 64.1385 12.281 64.1385 11.319V11.085C64.1385 10.136 63.9045 9.486 63.3715 9.07C62.8125 8.628 61.9675 8.472 60.8495 8.472C60.0565 8.472 59.3675 8.485 58.8605 8.55C58.5095 8.589 58.4055 8.706 58.4055 9.096V16.675C58.4055 16.948 58.4705 17 58.7565 17H59.6925C59.9785 17 60.0435 16.948 60.0435 16.675V14.049ZM67.9969 9.798C68.7119 9.798 69.0759 9.876 69.2839 10.071C69.4789 10.253 69.5439 10.5 69.5439 10.955V11.111C69.5439 11.553 69.4529 11.904 69.1799 12.099C68.9459 12.268 68.5169 12.346 67.7629 12.346H67.1909V10.006C67.1909 9.876 67.2299 9.837 67.3469 9.824C67.5159 9.798 67.7369 9.798 67.9969 9.798ZM67.1909 13.685H67.8539C67.9969 13.685 68.0619 13.711 68.1139 13.815L69.7389 16.714C69.8559 16.909 69.9729 17 70.2849 17H71.2339C71.5589 17 71.6369 16.896 71.5329 16.727L69.6089 13.542C70.7139 13.165 71.2209 12.32 71.2209 11.137V10.916C71.2209 10.032 71.0129 9.447 70.5579 9.083C69.9859 8.641 69.1669 8.472 67.8929 8.472C67.0739 8.472 66.4889 8.511 66.0079 8.576C65.6569 8.628 65.5529 8.732 65.5529 9.122V16.675C65.5529 16.948 65.6179 17 65.9039 17H66.8399C67.1259 17 67.1909 16.948 67.1909 16.675V13.685ZM74.4793 8.914C74.4793 8.641 74.4143 8.589 74.1283 8.589H73.1923C72.9063 8.589 72.8413 8.641 72.8413 8.914V16.675C72.8413 16.948 72.9063 17 73.1923 17H74.1283C74.4143 17 74.4793 16.948 74.4793 16.675V8.914ZM80.8302 15.947C81.1552 15.947 81.3372 15.986 81.4542 15.661C81.8702 14.465 82.6762 12.203 83.1702 10.747H83.2352C83.2872 12.515 83.2612 14.764 83.2742 16.701C83.2742 17 83.3522 17 83.6512 17H84.5222C84.8212 17 84.9122 17 84.8992 16.701C84.8212 14.127 84.7822 11.371 84.6132 9.018C84.5872 8.615 84.4572 8.589 83.9762 8.589H83.1052C82.5852 8.589 82.4812 8.615 82.3642 8.979C81.7922 10.799 81.1422 12.684 80.5442 14.283H80.4792C79.9072 12.684 79.2832 10.799 78.6852 8.966C78.5682 8.602 78.4512 8.589 77.9312 8.589H77.0602C76.5792 8.589 76.4362 8.602 76.4102 9.005C76.2542 11.358 76.2022 14.127 76.1242 16.701C76.1112 17 76.2022 17 76.5012 17H77.3722C77.6712 17 77.7492 17 77.7492 16.701C77.7622 14.764 77.7362 12.515 77.7752 10.747H77.8402C78.3212 12.203 79.1272 14.478 79.6082 15.661C79.7382 15.973 79.8942 15.947 80.2192 15.947H80.8302ZM91.3492 12.931C91.3492 13.789 91.3102 14.647 90.9202 15.232C90.6732 15.596 90.2442 15.765 89.6332 15.765C89.0222 15.765 88.5932 15.596 88.3462 15.232C87.9432 14.647 87.9172 13.789 87.9172 12.931V12.658C87.9172 11.8 87.9432 10.942 88.3462 10.357C88.5932 9.993 89.0222 9.824 89.6332 9.824C90.2442 9.824 90.6732 9.993 90.9202 10.357C91.3102 10.942 91.3492 11.8 91.3492 12.658V12.931ZM93.0262 12.528C93.0262 11.176 92.7662 10.032 92.0642 9.317C91.5442 8.784 90.7642 8.472 89.6332 8.472C88.4242 8.472 87.7092 8.758 87.1762 9.317C86.5132 10.032 86.2402 11.176 86.2402 12.528V13.061C86.2402 14.413 86.5132 15.557 87.1762 16.272C87.7092 16.831 88.4242 17.117 89.6332 17.117C90.7642 17.117 91.5442 16.805 92.0642 16.272C92.7662 15.557 93.0262 14.413 93.0262 13.061V12.528ZM99.1463 8.914C99.1463 8.641 99.0813 8.589 98.7953 8.589H97.8593C97.5733 8.589 97.5083 8.641 97.5083 8.914V16.675C97.5083 16.948 97.5733 17 97.8593 17H98.7953C99.0813 17 99.1463 16.948 99.1463 16.675V8.914ZM100.96 16.675C100.96 16.948 101.025 17 101.311 17H102.13C102.416 17 102.481 16.948 102.481 16.675V11.449H102.533L105.77 16.688C105.926 16.935 106.069 17 106.407 17H107.187C107.473 17 107.538 16.948 107.538 16.675V8.914C107.538 8.641 107.473 8.589 107.187 8.589H106.368C106.082 8.589 106.017 8.641 106.017 8.914V14.257H105.965L102.728 8.901C102.572 8.654 102.429 8.589 102.091 8.589H101.311C101.025 8.589 100.96 8.641 100.96 8.914V16.675ZM112.46 17C112.876 17 113.019 16.883 113.123 16.584C113.864 14.465 114.8 11.41 115.398 8.888C115.45 8.667 115.359 8.589 115.073 8.589H114.176C113.903 8.589 113.812 8.615 113.747 8.888C113.279 10.994 112.642 13.438 112.044 15.232H111.953C111.355 13.438 110.718 10.994 110.25 8.888C110.185 8.615 110.094 8.589 109.821 8.589H108.924C108.638 8.589 108.547 8.667 108.599 8.888C109.197 11.41 110.133 14.465 110.874 16.584C110.978 16.883 111.121 17 111.537 17H112.46ZM120.777 13.334C121.076 13.334 121.102 13.256 121.102 13.022V12.307C121.102 12.06 121.076 11.995 120.777 11.995H117.865C117.865 11.358 117.904 10.773 117.943 10.318C117.969 10.019 118.125 9.928 118.372 9.928H121.206C121.505 9.928 121.531 9.85 121.531 9.616V8.901C121.531 8.654 121.505 8.589 121.206 8.589H118.216C117.605 8.589 117.176 8.641 116.877 8.875C116.591 9.109 116.435 9.46 116.37 10.097C116.292 10.786 116.253 11.774 116.253 12.528V13.061C116.253 13.854 116.292 14.803 116.37 15.492C116.448 16.103 116.539 16.454 116.825 16.688C117.111 16.922 117.553 17 118.216 17H121.193C121.492 17 121.531 16.922 121.531 16.688V15.973C121.531 15.726 121.492 15.661 121.193 15.661H118.372C118.099 15.661 117.982 15.596 117.956 15.297C117.891 14.634 117.865 14.036 117.865 13.334H120.777ZM125.094 17.117C126.199 17.117 126.979 16.948 127.473 16.506C127.941 16.09 128.175 15.401 128.175 14.595V14.4C128.175 13.75 128.071 13.269 127.785 12.905C127.46 12.502 126.979 12.281 126.186 12.112L125.237 11.917C124.834 11.839 124.535 11.735 124.366 11.566C124.21 11.41 124.158 11.228 124.158 10.903V10.799C124.158 10.383 124.275 10.149 124.457 10.019C124.652 9.889 124.938 9.824 125.497 9.824C126.017 9.824 126.602 9.941 127.174 10.123C127.408 10.201 127.538 10.149 127.577 9.967L127.772 9.148C127.824 8.914 127.772 8.836 127.551 8.771C127.096 8.628 126.251 8.472 125.458 8.472C124.496 8.472 123.794 8.615 123.313 8.966C122.819 9.343 122.559 9.928 122.559 10.76V10.929C122.559 11.618 122.741 12.177 123.053 12.515C123.391 12.892 123.82 13.074 124.639 13.256L125.536 13.451C125.978 13.555 126.264 13.659 126.42 13.854C126.524 13.984 126.576 14.205 126.576 14.543V14.647C126.576 15.05 126.524 15.31 126.316 15.479C126.056 15.7 125.653 15.765 125.055 15.765C124.483 15.765 123.612 15.557 123.092 15.362C122.923 15.297 122.767 15.336 122.728 15.57L122.585 16.324C122.533 16.571 122.611 16.662 122.858 16.74C123.456 16.935 124.405 17.117 125.094 17.117ZM132.377 9.928H134.197C134.496 9.928 134.522 9.85 134.522 9.616V8.901C134.522 8.654 134.457 8.589 134.197 8.589H128.919C128.659 8.589 128.594 8.654 128.594 8.901V9.616C128.594 9.85 128.62 9.928 128.919 9.928H130.739V16.675C130.739 16.948 130.804 17 131.09 17H132.026C132.312 17 132.377 16.948 132.377 16.675V9.928Z" fill="white"/>
</svg>
