<svg width="39" height="48" viewBox="0 0 39 48" fill="none" xmlns="http://www.w3.org/2000/svg">
<path d="M37.5014 7.89662C33.448 7.89662 30.1553 4.60386 30.1553 0.550461C30.1553 0.25021 29.9051 0 29.6048 0H8.44708C8.14683 0 7.89662 0.25021 7.89662 0.550461C7.89662 4.60386 4.60386 7.89662 0.550462 7.89662C0.25021 7.89662 0 8.14683 0 8.44708V19.1661C0 31.5865 7.38619 42.7458 18.8058 47.5999C18.8758 47.6299 18.9459 47.6399 19.0159 47.6399C19.086 47.6399 19.1661 47.6199 19.2261 47.5999C30.6557 42.7458 38.0319 31.5865 38.0319 19.1661V8.44708C38.0519 8.14683 37.8017 7.89662 37.5014 7.89662ZM36.951 19.1661C36.951 31.066 29.9251 41.775 19.026 46.499C8.12681 41.765 1.10092 31.066 1.10092 19.1661V8.96752C5.32446 8.69729 8.7073 5.30445 8.97753 1.09091H29.0744C29.3446 5.31446 32.7374 8.69729 36.951 8.96752V19.1661Z" fill="#D22238"/>
<path d="M13.218 25.3931C13.0531 25.3931 13.0177 25.4164 13.0148 25.4193C13.0118 25.4251 12.9883 25.4601 12.9883 25.6437V26.4597C12.9883 26.6433 13.0089 26.6812 13.0148 26.6871C13.0148 26.6871 13.0501 26.7104 13.218 26.7104H15.1144L15.135 26.9056C15.5355 30.6186 17.1198 32 20.9863 32C22.2025 32 23.6661 31.7494 24.6261 31.3734C24.7792 31.3122 24.8116 31.2801 24.8145 31.2743C24.8116 31.1519 24.7556 30.9158 24.6673 30.5399L24.5436 30.0765C24.4936 29.8929 24.4582 29.8929 24.4317 29.8929C24.3669 29.8929 24.2109 29.9454 24.0283 30.0066C23.245 30.2834 22.0877 30.4641 21.0864 30.4641C18.2624 30.4641 17.5085 29.0623 17.2464 26.961L17.217 26.7162H22.388C22.5529 26.7162 22.5883 26.6929 22.5912 26.69C22.5942 26.6842 22.6177 26.6463 22.6177 26.4627V25.6466C22.6177 25.463 22.5971 25.4251 22.5912 25.4193C22.5912 25.4193 22.5559 25.396 22.388 25.396H17.1228V23.2539H22.388C22.5529 23.2539 22.5883 23.2306 22.5912 23.2277C22.5942 23.2219 22.6177 23.184 22.6177 23.0004V22.1843C22.6177 22.0007 22.5971 21.9628 22.5912 21.957C22.5912 21.957 22.5559 21.9337 22.388 21.9337H17.1817L17.1964 21.7005C17.3907 18.7075 18.3625 17.5417 20.6653 17.5417C21.7873 17.5417 22.8445 17.8244 23.8958 18.4102C24.0931 18.5326 24.152 18.5559 24.2609 18.5559C24.2963 18.5559 24.3404 18.5093 24.3934 18.4189L24.6938 17.9002C24.9677 17.431 24.9883 17.329 24.9883 17.2415C24.9883 17.192 24.9618 17.1279 24.7674 17.0055C23.5748 16.3497 22.1525 16 20.6624 16C17.111 16 15.4001 17.7661 15.1115 21.7297L15.0967 21.9337H13.218C13.0531 21.9337 13.0177 21.957 13.0148 21.9599C13.0118 21.9658 12.9883 22.0007 12.9883 22.1843V23.0004C12.9883 23.184 13.0089 23.2219 13.0148 23.2277C13.0148 23.2277 13.0501 23.251 13.218 23.251H15.0379V25.3931H13.218Z" fill="#D22238"/>
</svg>
