<svg width="14" height="17" viewBox="0 0 14 17" fill="none" xmlns="http://www.w3.org/2000/svg">
<path d="M8.568 0.256C6.96 0.256 5.688 0.615999 4.704 1.384C3.504 2.344 2.928 3.568 2.712 5.56H1.248C0.6 5.56 0.6 5.752 0.6 6.448V6.904C0.6 7.576 0.6 7.744 1.248 7.744H2.616V7.768V9.208H1.248C0.6 9.208 0.6 9.4 0.6 10.096V10.504C0.6 11.176 0.6 11.344 1.248 11.344H2.736C2.952 12.952 3.408 14.056 4.2 14.824C5.208 15.832 6.624 16.216 8.856 16.216C9.96 16.216 11.496 15.928 12.456 15.496C12.792 15.352 12.792 15.136 12.696 14.704L12.432 13.552C12.336 13.144 12.24 13 11.88 13.144C11.064 13.48 10.032 13.72 9.048 13.72C7.728 13.72 7.008 13.408 6.528 12.832C6.24 12.496 6.024 12.016 5.904 11.344H10.08C10.728 11.344 10.728 11.176 10.728 10.504V10.096C10.728 9.4 10.728 9.208 10.08 9.208H5.688V7.744H10.08C10.728 7.744 10.728 7.576 10.728 6.904V6.448C10.728 5.752 10.728 5.56 10.08 5.56H5.808C5.928 4.576 6.144 3.904 6.6 3.448C7.104 2.944 7.704 2.752 8.496 2.752C9.672 2.752 10.8 3.16 11.568 3.616C11.856 3.784 12.048 3.76 12.192 3.424L12.864 2.032C13.008 1.648 12.96 1.48 12.696 1.336C11.568 0.711999 10.056 0.256 8.568 0.256Z" fill="#1D1D1D"/>
</svg>

