<svg width="48" height="48" viewBox="0 0 48 48" fill="none" xmlns="http://www.w3.org/2000/svg">
<path d="M47.7804 26.7964L41.9541 15.2347C41.9085 15.1346 41.8175 15.0709 41.7174 15.0344C41.6172 15.0071 41.4989 15.0162 41.4078 15.0709L37.2657 17.4833C37.0836 17.5835 37.0199 17.8111 37.1109 17.9931L37.3658 18.5211C35.7272 18.6122 33.2146 17.5653 30.966 16.6185C29.0451 15.8083 27.2244 15.0435 26.0318 15.0253C25.2398 15.0527 24.4478 15.2074 23.7013 15.4805C21.1704 14.6794 17.9751 16.3727 15.6354 17.6199C14.9253 18.0569 14.1606 18.4028 13.3686 18.6577C12.4127 18.7578 11.4386 18.6759 10.5101 18.4119L10.7104 17.9931C10.8014 17.8111 10.7377 17.5835 10.5556 17.4833L6.41344 15.0709C6.3224 15.0162 6.20405 15.0071 6.10391 15.0344C6.00377 15.0618 5.91274 15.1346 5.86722 15.2347L0.0408865 26.7964C-0.0501499 26.9875 0.0135758 27.2151 0.204752 27.3153L4.50167 29.664C4.55629 29.6913 4.62002 29.7095 4.69285 29.7095C4.72926 29.7095 4.77478 29.7004 4.81119 29.6913C4.91133 29.6549 4.99327 29.5912 5.04789 29.491L5.43935 28.699C6.64103 30.2739 8.13402 31.6031 9.8364 32.6227L9.50867 33.2053C9.20825 33.7424 9.13542 34.3706 9.30839 34.9623C9.47226 35.5541 9.87282 36.0457 10.4008 36.3461L10.5738 36.4462C10.9197 36.6374 11.3021 36.7375 11.6935 36.7375C11.8665 36.7375 12.0486 36.7102 12.2216 36.6647C11.994 37.1927 11.9667 37.7753 12.1396 38.3216C12.3217 38.8678 12.6949 39.323 13.1956 39.5961L13.3686 39.6962C13.7419 39.9056 14.1788 40.0057 14.6067 39.9875C15.0346 39.9602 15.4534 39.8146 15.8084 39.5597C15.8175 39.6325 15.8266 39.7053 15.8448 39.7781C16.0087 40.3699 16.4092 40.8706 16.9372 41.1619L17.1102 41.262C17.4562 41.4532 17.8385 41.5534 18.23 41.5534C18.8399 41.5534 19.4316 41.3076 19.8595 40.8797C20.0325 41.4623 20.4148 41.9539 20.9428 42.2452L21.1158 42.3454C21.6529 42.6458 22.2811 42.7186 22.8728 42.5457C23.4646 42.3818 23.9562 41.9812 24.2566 41.4532L24.648 40.7431L27.1151 42.5548C27.6067 42.9189 28.2258 43.0646 28.8266 42.9735C29.4274 42.8825 29.9737 42.5548 30.3378 42.0632L30.4562 41.8993C30.8294 41.3895 30.9751 40.7431 30.8658 40.1241C31.0752 40.1878 31.2846 40.2151 31.494 40.2151C31.6123 40.2151 31.7307 40.206 31.849 40.1878C32.459 40.0968 32.9961 39.769 33.3602 39.2774L33.4786 39.1136C33.8518 38.6038 33.9975 37.9574 33.8882 37.3384C34.0976 37.4021 34.307 37.4294 34.5164 37.4294C34.6347 37.4294 34.7531 37.4203 34.8714 37.4021C35.4723 37.3111 36.0185 36.9833 36.3826 36.4917L36.501 36.3279C36.8742 35.8181 37.0199 35.1717 36.9106 34.5527C37.3658 34.6892 37.8483 34.6801 38.2944 34.5253C38.7405 34.3706 39.1319 34.0884 39.405 33.706L39.5234 33.5422C39.8238 33.1325 39.9786 32.6409 39.9695 32.1311C39.9604 31.6213 39.7783 31.1388 39.4688 30.7382C40.6431 30.4014 41.6627 29.6822 42.3728 28.6899L42.7552 29.4728C42.8007 29.573 42.8826 29.6367 42.9919 29.6731C43.0283 29.6822 43.0738 29.6913 43.1102 29.6913C43.1739 29.6913 43.2377 29.6731 43.3014 29.6458L47.5983 27.2879C47.8077 27.2151 47.8805 26.9784 47.7804 26.7964ZM4.54719 28.7809L0.942147 26.8055L6.40433 15.9539L9.86372 17.9658L4.54719 28.7809ZM10.9744 35.7634L10.8014 35.6633C10.4463 35.463 10.1914 35.1353 10.0822 34.7438C9.97296 34.3524 10.0185 33.9427 10.2188 33.5877L11.6389 31.0478C11.8392 30.6927 12.1669 30.4378 12.5493 30.3286C12.9407 30.2193 13.3504 30.2648 13.7055 30.4651L13.8784 30.5653C14.2335 30.7655 14.4884 31.0933 14.5976 31.4756C14.7069 31.8671 14.6613 32.2767 14.4611 32.6318L13.0409 35.1717C12.8406 35.5267 12.5129 35.7816 12.1305 35.8909C11.7482 36.0092 11.3294 35.9546 10.9744 35.7634ZM15.8539 38.4308C15.6536 38.7859 15.3259 39.0408 14.9435 39.15C14.5521 39.2592 14.1424 39.2137 13.7874 39.0134L13.6144 38.9133C13.2594 38.713 13.0045 38.3853 12.8952 37.9938C12.786 37.6024 12.8315 37.1927 13.0318 36.8377L13.751 35.545L15.1711 33.005L15.8903 31.7123C16.0906 31.3573 16.4183 31.1024 16.8007 30.9931C17.1921 30.8839 17.6018 30.9294 17.9569 31.1297L18.1298 31.2298C18.4849 31.4301 18.7398 31.7578 18.849 32.1493C18.9583 32.5408 18.9127 32.9504 18.7125 33.3055L18.4849 33.7151L17.2832 35.8636L15.8539 38.4308ZM20.0871 39.1045L19.5955 39.9875C19.3952 40.3426 19.0675 40.5975 18.6851 40.7067C18.2937 40.816 17.884 40.7704 17.529 40.5702L17.356 40.47C17.001 40.2697 16.7461 39.942 16.6368 39.5597C16.5276 39.1682 16.5731 38.7585 16.7734 38.4035L17.9751 36.2459L19.1767 34.0884C19.377 33.7333 19.7048 33.4784 20.0871 33.3692C20.4786 33.2599 20.8882 33.3055 21.2433 33.5057L21.4162 33.6059C21.7713 33.8062 22.0262 34.1339 22.1354 34.5253C22.2447 34.9168 22.1991 35.3265 21.9989 35.6815L20.7972 37.8391L20.0871 39.1045ZM23.6102 41.0618C23.4099 41.4168 23.0822 41.6717 22.6999 41.7809C22.3084 41.8902 21.8987 41.8447 21.5437 41.6444L21.3707 41.5443C21.0157 41.344 20.7608 41.0162 20.6515 40.6339C20.5423 40.2424 20.5878 39.8328 20.7881 39.4777L21.4982 38.2032L22.2083 36.9378C22.4085 36.5828 22.7363 36.3279 23.1186 36.2186C23.5101 36.1094 23.9197 36.1549 24.2748 36.3552L24.4478 36.4553C24.8028 36.6556 25.0577 36.9833 25.1669 37.3657C25.2762 37.7571 25.2307 38.1668 25.0304 38.5218L23.6102 41.0618ZM38.9225 33.0961L38.8042 33.2599C38.5675 33.5877 38.2034 33.7971 37.8028 33.8608C37.4022 33.9245 36.9926 33.8244 36.6739 33.5786L36.0458 33.1143L31.5577 29.8097C31.4758 29.7459 31.3665 29.7186 31.2664 29.7368C31.1662 29.755 31.0661 29.8097 31.0115 29.8916C30.9477 29.9735 30.9204 30.0828 30.9386 30.1829C30.9569 30.283 31.0115 30.3832 31.0934 30.4378L35.5815 33.7424C35.9092 33.9791 36.1186 34.3433 36.1823 34.7438C36.2461 35.1444 36.1459 35.5541 35.9001 35.8727L35.7818 36.0366C35.5451 36.3643 35.1809 36.5828 34.7804 36.6374C34.3798 36.7011 33.9702 36.601 33.6515 36.3552L33.0234 35.8909L29.6459 33.4056C29.473 33.2781 29.2272 33.3146 29.0997 33.4875C28.9723 33.6605 29.0087 33.9063 29.1816 34.0337L32.5682 36.5281C32.8959 36.7648 33.1053 37.129 33.169 37.5295C33.2328 37.9301 33.1326 38.3398 32.8868 38.6584L32.7685 38.8223C32.5318 39.15 32.1676 39.3685 31.7671 39.4231C31.3665 39.4868 30.9569 39.3867 30.6382 39.1409L30.0101 38.6766L27.9344 37.1563C27.8525 37.0926 27.7433 37.0653 27.6431 37.0835C27.543 37.1017 27.452 37.1563 27.3882 37.2382C27.2608 37.4112 27.2972 37.657 27.4702 37.7844L29.5458 39.3048C29.8735 39.5415 30.0829 39.9056 30.1466 40.3062C30.2104 40.7067 30.1102 41.1073 29.8735 41.435L29.7552 41.5989C29.5185 41.9266 29.1543 42.1451 28.7538 42.1997C28.3532 42.2634 27.9435 42.1633 27.6249 41.9175L25.0759 40.0422L25.7132 38.9042C26.0136 38.3671 26.0864 37.7389 25.9134 37.1472C25.7496 36.5555 25.349 36.0639 24.821 35.7634L24.648 35.6633C24.12 35.3629 23.4919 35.2901 22.9092 35.4539C23.0276 34.9714 22.9821 34.4525 22.7818 33.9973C22.5815 33.5422 22.2356 33.1598 21.7986 32.914L21.6256 32.8139C21.0248 32.4861 20.3147 32.4406 19.6774 32.6864C19.7048 32.2585 19.6046 31.8216 19.4043 31.4483C19.1949 31.066 18.8854 30.7564 18.5122 30.5471L18.3392 30.4469C17.8385 30.1738 17.2559 30.0919 16.7006 30.2193C16.1452 30.3468 15.6536 30.6836 15.335 31.157C15.1529 30.6108 14.7797 30.1556 14.279 29.8734L14.106 29.7732C13.5689 29.4728 12.9407 29.4 12.349 29.5639C11.7573 29.7277 11.2657 30.1283 10.9653 30.6563L10.2552 31.9308C8.53458 30.9021 7.03248 29.5274 5.86722 27.8979L10.1914 19.122C10.9835 19.3496 11.8119 19.477 12.6403 19.4861C12.9316 19.4861 13.2321 19.4679 13.5234 19.4224C14.4064 19.1675 15.2531 18.7851 16.036 18.3027C17.8658 17.3286 20.2328 16.0723 22.2538 16.0449C19.9232 17.0646 17.6291 18.6031 17.2559 19.4224C16.8371 20.7879 16.5731 22.1899 16.4639 23.6101C16.4001 24.1108 16.5276 24.6115 16.8189 25.012C17.1102 25.4217 17.5381 25.7039 18.0297 25.8132C18.6214 25.9406 19.2405 25.8769 19.7958 25.6129C20.3511 25.358 20.7972 24.9301 21.0794 24.3839L21.9716 22.6815C22.19 22.2627 22.5178 21.9168 22.9183 21.671C23.3189 21.4252 23.7832 21.2978 24.2475 21.2978H25.5402L38.6039 30.9476C38.9316 31.1843 39.141 31.5485 39.2048 31.949C39.2594 32.3678 39.1592 32.7683 38.9225 33.0961ZM38.7405 30.0919L25.8952 20.6059C25.8315 20.5513 25.7496 20.533 25.6585 20.533H24.2384C23.6284 20.533 23.0276 20.6969 22.4996 21.0155C21.9716 21.3342 21.5437 21.7893 21.2615 22.3265L20.3693 24.0288C20.169 24.4112 19.8413 24.7207 19.4499 24.9119C19.0584 25.094 18.6123 25.1486 18.1844 25.0576C17.5654 24.921 17.1557 24.3384 17.2286 23.7102C17.3287 22.3629 17.5745 21.0428 17.9569 19.7501C18.2846 19.0218 21.2251 17.1374 23.7559 16.2634C23.8014 16.2543 23.8378 16.2452 23.8833 16.227C24.5752 15.9721 25.3035 15.8356 26.0318 15.8174C27.0696 15.8356 28.8266 16.573 30.6746 17.3559C33.251 18.4392 35.9092 19.5407 37.7482 19.2767L42.0087 27.9252C41.2986 29.0905 40.0969 29.8916 38.7405 30.0919ZM43.3105 28.7809L37.9849 17.9749L41.4443 15.963L46.9064 26.8146L43.3105 28.7809Z" fill="#D22238"/>
<path d="M19.134 5.28361C19.0378 5.28361 19.0172 5.29672 19.0155 5.29836C19.0137 5.30164 19 5.32131 19 5.42459V5.8836C19 5.98688 19.012 6.00819 19.0155 6.01147C19.0155 6.01147 19.0361 6.02459 19.134 6.02459H20.2402L20.2523 6.13442C20.4859 8.22295 21.4101 9 23.6655 9C24.375 9 25.2287 8.85901 25.7887 8.64754C25.878 8.61311 25.8969 8.59508 25.8987 8.5918C25.8969 8.52295 25.8643 8.39016 25.8128 8.17869L25.7406 7.91803C25.7114 7.81475 25.6908 7.81475 25.6753 7.81475C25.6375 7.81475 25.5465 7.84426 25.44 7.87869C24.9831 8.03442 24.308 8.13606 23.7239 8.13606C22.0766 8.13606 21.6368 7.34754 21.4839 6.16557L21.4667 6.02787H24.4832C24.5794 6.02787 24.6 6.01475 24.6017 6.01311C24.6034 6.00984 24.6172 5.98852 24.6172 5.88525V5.42623C24.6172 5.32295 24.6052 5.30164 24.6017 5.29836C24.6017 5.29836 24.5811 5.28524 24.4832 5.28524H21.4118V4.08033H24.4832C24.5794 4.08033 24.6 4.06721 24.6017 4.06557C24.6034 4.06229 24.6172 4.04098 24.6172 3.9377V3.47869C24.6172 3.37541 24.6052 3.3541 24.6017 3.35082C24.6017 3.35082 24.5811 3.3377 24.4832 3.3377H21.4461L21.4547 3.20656C21.5681 1.52295 22.135 0.867212 23.4783 0.867212C24.1328 0.867212 24.7494 1.02623 25.3627 1.35574C25.4778 1.42459 25.5121 1.4377 25.5757 1.4377C25.5963 1.4377 25.6221 1.41147 25.653 1.36065L25.8282 1.06885C25.988 0.804918 26 0.74754 26 0.69836C26 0.670491 25.9845 0.634426 25.8712 0.565573C25.1755 0.196721 24.3458 0 23.4766 0C21.4049 0 20.4069 0.993442 20.2385 3.22295L20.2299 3.3377H19.134C19.0378 3.3377 19.0172 3.35082 19.0155 3.35246C19.0137 3.35574 19 3.37541 19 3.47869V3.9377C19 4.04098 19.012 4.06229 19.0155 4.06557C19.0155 4.06557 19.0361 4.07869 19.134 4.07869H20.1956V5.28361H19.134Z" fill="#D22238"/>
</svg>
