<svg width="100" height="68" viewBox="0 0 100 68" fill="none" xmlns="http://www.w3.org/2000/svg">
<g clip-path="url(#clip0_220_7830)">
<path d="M5.54708 65.4133H3.01375C2.93375 65.4133 2.93375 65.4133 2.93375 65.3333V59.2533C2.93375 58.88 2.74708 58.8 2.45375 58.8H1.57375C1.25375 58.8 1.09375 58.88 1.09375 59.2533V65.6533C1.09375 66.1333 1.17375 66.4 1.41375 66.6133C1.62708 66.8533 1.94708 66.96 2.48042 66.96H5.54708C5.89375 66.96 6.02708 66.8266 6.02708 66.5066V65.8666C6.02708 65.5466 5.89375 65.44 5.54708 65.44V65.4133ZM6.72042 61.28L8.05375 61.2266C8.13375 61.2266 8.21375 61.1733 8.26709 61.0666C8.26709 61.0666 8.40042 60.8 8.66709 60.6133C8.82709 60.5066 9.30709 60.2666 10.0538 60.2666C10.6138 60.2666 11.1471 60.4266 11.4404 60.64C11.6004 60.7466 11.7604 60.8533 11.7604 61.28V61.8133C11.2804 61.84 10.1604 61.92 8.82709 62.1066H8.80042C7.73375 62.2933 6.50708 63.04 6.50708 64.56C6.50708 65.3066 6.93375 66 7.68042 66.48C8.32042 66.9066 9.17375 67.1466 10.0271 67.1466C10.8804 67.1466 11.7338 66.88 12.3738 66.48C12.7257 66.2505 13.0165 65.9388 13.2209 65.5717C13.4254 65.2047 13.5373 64.7933 13.5471 64.3733V61.28C13.5471 60.5066 13.0938 59.7333 12.3738 59.28C11.669 58.8463 10.8545 58.6241 10.0271 58.64C9.20836 58.6262 8.40298 58.8484 7.70709 59.28C6.90708 59.7866 6.64042 60.48 6.48042 60.9333C6.48042 61.0133 6.48042 61.0933 6.53375 61.1733C6.56042 61.2266 6.64042 61.28 6.72042 61.28ZM11.7604 63.28V64.2933C11.7604 64.72 11.6271 65.0666 11.3871 65.2C10.9854 65.4445 10.5241 65.5737 10.0538 65.5733H10.0271C9.46709 65.5733 8.74709 65.4133 8.37375 64.96C8.37375 64.96 8.08042 64.5333 8.37375 63.9733C8.45375 63.76 8.88042 63.6266 9.12042 63.5733C10.0804 63.4133 11.2538 63.3066 11.7604 63.3066V63.28ZM22.3738 58.8H21.5204C21.2538 58.8 21.0671 58.8266 20.9871 59.2C20.5338 61.2266 19.9738 63.28 19.4938 64.8C19.0138 63.28 18.4538 61.2266 18.0004 59.2C17.9204 58.8266 17.7338 58.8 17.4671 58.8H16.6138C16.4804 58.8 16.3204 58.8 16.2138 58.9333C16.1071 59.0666 16.1604 59.2 16.1604 59.28C16.7577 61.7122 17.4696 64.1149 18.2938 66.48C18.4271 66.8266 18.6404 66.96 19.0671 66.96H19.9204C20.3471 66.96 20.5604 66.8266 20.6938 66.48C21.2804 64.7466 22.2138 61.8133 22.8271 59.28C22.8271 59.2266 22.8538 59.0666 22.7738 58.9333C22.6671 58.8266 22.5071 58.8 22.3738 58.8ZM24.9071 58.8H24.0538C23.7338 58.8 23.5738 58.88 23.5738 59.2533V66.5066C23.5738 66.88 23.7338 66.96 24.0538 66.96H24.9071C25.2271 66.96 25.3871 66.88 25.3871 66.5066V59.2533C25.3871 58.88 25.2271 58.8 24.9071 58.8ZM33.2004 64.5066L31.8938 64.5333C31.8473 64.5389 31.8031 64.5566 31.7657 64.5847C31.7282 64.6128 31.6988 64.6502 31.6804 64.6933C31.6804 64.6933 31.5471 64.96 31.2804 65.1466C31.0938 65.28 30.6404 65.52 29.8938 65.52C29.3071 65.52 28.7738 65.3333 28.5071 65.12C28.3471 65.0133 28.1604 64.9066 28.1871 64.48V63.9466C28.6404 63.92 29.7871 63.84 31.1204 63.68C32.1871 63.4666 33.4138 62.72 33.4138 61.2C33.4138 60.4533 32.9871 59.76 32.2404 59.28C31.6004 58.8533 30.7738 58.64 29.8938 58.64C29.0138 58.64 28.2138 58.8533 27.5738 59.28C27.2218 59.5094 26.931 59.8211 26.7266 60.1882C26.5222 60.5553 26.4102 60.9666 26.4004 61.3866V64.48C26.4004 65.28 26.8271 66.0266 27.5738 66.5066C28.1871 66.9066 29.0404 67.1466 29.8938 67.1466C30.7215 67.1655 31.5369 66.9431 32.2404 66.5066C33.0404 65.9733 33.3071 65.3066 33.4404 64.8266C33.4552 64.7873 33.4604 64.7451 33.4558 64.7034C33.4512 64.6617 33.4368 64.6217 33.4138 64.5866C33.3863 64.5584 33.353 64.5365 33.3161 64.5227C33.2792 64.5089 33.2397 64.5034 33.2004 64.5066ZM28.1871 62.48V61.4933C28.1871 61.04 28.3204 60.6933 28.5338 60.56C28.9459 60.32 29.417 60.1999 29.8938 60.2133C30.4804 60.2133 31.2004 60.3733 31.5471 60.8266C31.5471 60.8266 31.8404 61.2266 31.5471 61.7866C31.4671 62 31.0404 62.16 30.8271 62.1866C29.8404 62.3733 28.6938 62.4533 28.1604 62.4533L28.1871 62.48ZM43.5471 64.5066L42.2404 64.5333C42.194 64.5389 42.1498 64.5566 42.1123 64.5847C42.0749 64.6128 42.0455 64.6502 42.0271 64.6933C42.0271 64.6933 41.8938 64.96 41.6271 65.1466C41.4404 65.28 40.9871 65.52 40.2404 65.52C39.6538 65.52 39.1471 65.3333 38.8538 65.12C38.6938 65.0133 38.5071 64.9066 38.5338 64.48V63.9466C39.0138 63.92 40.1338 63.84 41.4671 63.68C42.5338 63.4666 43.7604 62.72 43.7604 61.2C43.7604 60.4533 43.3338 59.76 42.5871 59.28C41.9471 58.8533 41.1204 58.64 40.2671 58.64C39.4138 58.64 38.5604 58.8533 37.9204 59.28C37.5685 59.5094 37.2777 59.8211 37.0733 60.1882C36.8688 60.5553 36.7569 60.9666 36.7471 61.3866V64.48C36.7471 65.28 37.2004 66.0266 37.9204 66.48C38.5604 66.9066 39.3871 67.1466 40.2671 67.1466C41.0858 67.1603 41.8912 66.9382 42.5871 66.5066C43.3871 65.9733 43.6538 65.3066 43.7871 64.8266C43.8058 64.7894 43.8156 64.7483 43.8156 64.7066C43.8156 64.6649 43.8058 64.6238 43.7871 64.5866C43.7568 64.5545 43.7191 64.5303 43.6772 64.5163C43.6353 64.5024 43.5906 64.499 43.5471 64.5066ZM38.5338 62.48V61.4933C38.5338 61.04 38.6671 60.6933 38.9071 60.56C39.3115 60.3247 39.7727 60.2048 40.2404 60.2133H40.2671C40.8004 60.2133 41.5471 60.3733 41.9204 60.8266C41.9204 60.8266 42.1871 61.2266 41.9204 61.7866C41.8138 62 41.3871 62.16 41.1738 62.1866C40.1871 62.3733 39.0404 62.4533 38.5338 62.4533V62.48ZM47.9471 58.6666C45.7338 58.6666 44.6938 59.6266 44.6404 59.6533C44.5902 59.7025 44.5614 59.7696 44.5604 59.84V66.72C44.5604 66.8533 44.6671 66.9866 44.8271 66.9866H46.0538C46.1871 66.9866 46.3204 66.8533 46.3204 66.72V60.6666C46.7471 60.4 47.5738 60.32 47.8671 60.32C48.0804 60.32 49.6004 60.32 49.6004 61.36V66.6933C49.6004 66.8533 49.7071 66.96 49.8671 66.96H51.0671C51.2271 66.96 51.3338 66.8533 51.3338 66.6933V61.3333C51.3338 59.9733 50.0804 58.6666 47.9471 58.6666ZM56.0004 62.1333L54.8004 61.9466C54.4004 61.8666 54.1871 61.7866 54.0538 61.68C53.9471 61.5466 53.8938 61.44 53.8938 61.1466V61.04C53.8938 60.7466 53.9738 60.5333 54.1071 60.4533C54.2404 60.3733 54.7204 60.2933 55.3338 60.2933C55.7604 60.2933 56.2938 60.3733 56.8538 60.56C57.0138 60.6133 57.1471 60.6133 57.2538 60.56C57.3338 60.5066 57.4138 60.4266 57.4138 60.2933L57.6004 59.5466C57.6804 59.2533 57.6004 59.0933 57.3071 59.0133C56.6568 58.8253 55.984 58.7266 55.3071 58.72C54.8804 58.72 53.4938 58.7466 52.8538 59.2266C52.3471 59.6 52.1071 60.2133 52.1071 61.0133V61.1733C52.1071 61.84 52.2671 62.4 52.6138 62.7733C52.9604 63.1733 53.4404 63.3333 54.1604 63.4933L55.3338 63.68C55.6804 63.76 55.9471 63.84 56.0804 64C56.1604 64.08 56.1871 64.2666 56.1871 64.5333V64.64C56.1871 65.0133 56.1338 65.1733 56.0004 65.3066C55.8404 65.44 55.2804 65.52 54.5871 65.52C54.0804 65.52 53.2804 65.36 52.8004 65.1733C52.6404 65.0933 52.5338 65.1466 52.4538 65.1733C52.3738 65.2 52.2938 65.3066 52.2671 65.4666L52.1338 66.1866C52.0538 66.56 52.2671 66.6666 52.4804 66.72C53.0138 66.9333 53.9471 67.0933 54.6138 67.0933C55.2271 67.0933 56.6671 67.04 57.2804 66.5066C57.7338 66.08 57.9738 65.4133 57.9738 64.5866V64.4266C57.9738 63.7333 57.8671 63.28 57.6004 62.9333C57.2804 62.5333 56.8004 62.2933 56.0004 62.1333ZM65.4938 64.5333L64.1871 64.56C64.1406 64.5656 64.0964 64.5833 64.059 64.6114C64.0215 64.6395 63.9922 64.6769 63.9738 64.72C63.9738 64.72 63.8404 64.9866 63.5738 65.1733C63.3871 65.28 62.9338 65.52 62.1871 65.52C61.6271 65.52 61.0938 65.36 60.8004 65.1466C60.6404 65.04 60.4538 64.9333 60.4804 64.5066V63.9733C60.9604 63.9466 62.0804 63.8666 63.4138 63.7066C64.4804 63.4933 65.7071 62.7466 65.7071 61.2266C65.7071 60.48 65.2804 59.7866 64.5338 59.3066C63.8938 58.88 63.0671 58.6666 62.2138 58.6666C61.3604 58.6666 60.5071 58.88 59.8671 59.3066C59.5151 59.5361 59.2244 59.8478 59.0199 60.2149C58.8155 60.5819 58.7035 60.9933 58.6938 61.4133V64.5066C58.6938 65.3066 59.1471 66.0533 59.8671 66.5066C60.5071 66.9333 61.3338 67.1733 62.2138 67.1733C63.0325 67.187 63.8379 66.9648 64.5338 66.5333C65.3338 66 65.6004 65.3333 65.7338 64.8533C65.7525 64.8161 65.7623 64.775 65.7623 64.7333C65.7623 64.6916 65.7525 64.6505 65.7338 64.6133C65.7064 64.5763 65.6699 64.547 65.6278 64.5284C65.5858 64.5097 65.5396 64.5022 65.4938 64.5066V64.5333ZM60.4804 62.5066V61.4933C60.4804 61.0666 60.6138 60.7466 60.8538 60.5866C61.2582 60.3514 61.7193 60.2315 62.1871 60.24H62.2138C62.7471 60.24 63.4938 60.4 63.8671 60.8533C63.8671 60.8533 64.1338 61.2533 63.8671 61.8133C63.7604 62.0266 63.3338 62.1866 63.1204 62.2133C62.1338 62.3733 60.9871 62.48 60.4804 62.48V62.5066ZM75.0938 58.6933C73.7604 58.6933 72.8271 59.04 72.3204 59.3333C71.7604 58.96 70.9871 58.6933 70.0804 58.6933C67.8671 58.6933 66.8271 59.6533 66.7738 59.68C66.7235 59.7292 66.6948 59.7963 66.6938 59.8666V66.7466C66.6938 66.88 66.8004 67.0133 66.9604 67.0133H68.1871C68.3204 67.0133 68.4538 66.88 68.4538 66.7466V60.6933C68.8538 60.4266 69.7071 60.3466 70.0004 60.3466C70.2138 60.3466 71.7071 60.3466 71.7071 61.3866V66.72C71.7071 66.88 71.8404 66.9866 71.9738 66.9866H73.2004C73.3338 66.9866 73.4671 66.88 73.4671 66.72V60.6933C73.8938 60.4 74.7204 60.3466 75.0138 60.3466C75.2271 60.3466 76.7471 60.3466 76.7471 61.3866V66.72C76.7471 66.88 76.8538 66.9866 77.0138 66.9866H78.2404C78.3738 66.9866 78.5071 66.88 78.5071 66.72V61.3333C78.4804 59.9733 77.2271 58.6666 75.0938 58.6666V58.6933ZM85.0671 62.56C85.3027 62.3852 85.4916 62.1551 85.6171 61.89C85.7427 61.6249 85.8011 61.3329 85.7871 61.04V60.8533C85.8018 60.5591 85.7466 60.2655 85.6261 59.9967C85.5056 59.7279 85.3232 59.4914 85.0938 59.3066C84.5604 58.9066 83.7604 58.72 82.6938 58.72C82.1604 58.72 80.5338 58.7466 80.0538 58.8266C79.6271 58.88 79.5204 59.04 79.5204 59.4933V66.2666C79.5204 66.72 79.6538 66.88 80.0804 66.9333L82.7471 66.9866C84.0271 66.9866 84.9338 66.7733 85.5204 66.32C86.0271 65.9466 86.2671 65.3333 86.2671 64.56V64.4C86.2671 63.52 85.8404 62.88 85.0671 62.56ZM83.9204 61.1466C83.9204 61.76 83.5738 62 82.7738 62H81.3338V60.2666L82.9338 60.24C83.2804 60.24 83.5471 60.2933 83.7071 60.4266C83.8404 60.5333 83.9204 60.72 83.9204 60.96V61.12V61.1466ZM81.3338 63.4666H83.0671C83.5471 63.4666 83.8671 63.5466 84.0804 63.68C84.2938 63.84 84.4004 64.08 84.4004 64.3733V64.5333C84.4004 64.8266 84.2938 65.0666 84.1338 65.2C83.8671 65.36 83.5471 65.44 83.0138 65.44C82.4534 65.4362 81.8932 65.4184 81.3338 65.3866V63.4666ZM91.4404 65.4133H88.8804C88.8004 65.4133 88.8004 65.4133 88.8004 65.3333V59.2533C88.8004 58.88 88.6404 58.8 88.3204 58.8H87.4671C87.1738 58.8 86.9871 58.88 86.9871 59.2533V65.6533C86.9871 66.1333 87.0938 66.4 87.3071 66.6133C87.5471 66.8533 87.8671 66.96 88.3738 66.96H91.4671C91.8138 66.96 91.9471 66.8266 91.9471 66.5066V65.8666C91.9471 65.5466 91.8138 65.44 91.4671 65.44L91.4404 65.4133ZM98.9071 64.48L97.6271 64.5333C97.576 64.5341 97.5262 64.5497 97.4836 64.578C97.4411 64.6064 97.4076 64.6464 97.3871 64.6933C97.3871 64.6933 97.2538 64.96 96.9871 65.1466C96.8004 65.2533 96.3471 65.4933 95.6004 65.4933C95.0404 65.4933 94.5071 65.3333 94.2138 65.12C94.0538 65.0133 93.8938 64.9066 93.8938 64.48V63.9466C94.3738 63.92 95.4938 63.84 96.8271 63.68C97.8938 63.4666 99.1204 62.72 99.1204 61.2C99.1204 60.4533 98.6938 59.76 97.9471 59.28C97.3071 58.8533 96.4804 58.64 95.6271 58.64C94.7738 58.64 93.9204 58.8533 93.2804 59.28C92.9285 59.5094 92.6377 59.8211 92.4333 60.1882C92.2288 60.5553 92.1169 60.9666 92.1071 61.3866V64.48C92.1071 65.28 92.5604 66.0266 93.2804 66.48C93.9204 66.9066 94.7471 67.1466 95.6271 67.1466C96.4458 67.1603 97.2512 66.9382 97.9471 66.5066C98.7471 65.9733 99.0138 65.3066 99.1738 64.8266C99.1848 64.7853 99.1857 64.7419 99.1764 64.7001C99.1671 64.6583 99.1479 64.6194 99.1204 64.5866C99.0956 64.5535 99.0634 64.5266 99.0264 64.5081C98.9893 64.4896 98.9485 64.48 98.9071 64.48ZM93.8938 62.48V61.4666C93.8938 61.04 94.0271 60.72 94.2671 60.56C94.6715 60.3247 95.1327 60.2048 95.6004 60.2133H95.6271C96.1871 60.2133 96.9071 60.3733 97.2804 60.8266C97.2804 60.8266 97.5471 61.2266 97.2804 61.7866C97.1738 62 96.7471 62.16 96.5338 62.1866C95.5738 62.3466 94.4004 62.4533 93.8938 62.4533" fill="black"/>
<path d="M49.1463 49.7334C33.9729 49.7334 25.5996 41.3334 25.5996 26.1867V24.2134C25.5996 9.06675 33.9729 0.666748 49.1463 0.666748H51.1196C66.2929 0.666748 74.6663 9.04008 74.6663 24.2134V26.1867C74.6663 41.3601 66.2929 49.7334 51.1196 49.7334H49.1463Z" fill="#C82832"/>
<path d="M36.1598 20.8532C35.4398 20.3999 34.5331 20.1599 33.5731 20.1599C30.9598 20.1599 29.7598 21.2799 29.7598 21.2799V29.3066H31.2531V22.1332C32.1331 21.5199 33.5731 21.5732 33.5731 21.5732C34.2664 21.5732 34.9064 21.7332 35.3331 22.0266C35.4931 22.1332 35.8664 22.4266 35.8664 23.3332V29.3332H37.3864V23.1199C37.3864 22.3199 36.9598 21.4132 36.1598 20.8799V20.8532ZM43.6798 25.4399C44.8798 25.2532 46.1064 24.4532 46.1064 22.8799C46.1064 22.0799 45.6264 21.3599 44.8798 20.8532C44.1598 20.3999 43.2531 20.1599 42.2931 20.1599C41.3331 20.1599 40.4264 20.3999 39.7331 20.8532C38.9331 21.3866 38.4798 22.2666 38.4798 23.0932V26.7199C38.4798 27.5199 38.9598 28.3199 39.7331 28.8266C40.4264 29.2799 41.3331 29.5199 42.2931 29.5199C43.2531 29.5199 44.1064 29.3066 44.8798 28.8266C45.7331 28.2932 45.9731 27.5466 46.1598 27.0132L44.6398 27.0932C44.6398 27.0932 44.4531 27.4932 44.0531 27.7599C43.6264 28.0266 42.9864 28.2132 42.2931 28.2132C41.6264 28.2132 40.9598 28.0266 40.5331 27.7599C40.3464 27.5999 39.9464 27.4132 39.9998 26.6932V25.8132C39.9998 25.8132 41.5731 25.7332 43.6798 25.4399ZM39.9998 24.6666V23.1999C39.9998 22.2932 40.3998 21.9732 40.5598 21.8666C41.0131 21.5999 41.6264 21.4132 42.3198 21.4132C43.0131 21.4132 43.9731 21.5999 44.4798 22.2132C44.5598 22.3199 44.9064 22.9332 44.5331 23.7066C44.2931 24.1599 43.4398 24.3199 43.4398 24.3199C41.8931 24.5866 39.9998 24.6666 39.9998 24.6666Z" fill="white"/>
<path d="M51.0398 24.9067L54.2398 20.48H52.4531L50.2131 23.6L47.9998 20.48H46.1864L49.3864 24.9067L46.1064 29.3067H47.9198L50.2131 26.1067L52.5331 29.3067H54.3198L51.0398 24.9067ZM56.6131 20.2667L55.3598 20.8C55.3598 20.8 55.0931 20.9067 55.0931 21.2V29.3334H56.6131V20.2667ZM62.0264 20.8H60.1864V18.4L58.9598 18.9334C58.9598 18.9334 58.6931 19.0667 58.6931 19.36V29.3067H60.1864V22.1334H62.0531V20.8H62.0264ZM65.2264 26.24C65.2264 26.24 66.2398 26.2934 68.6131 25.8134V27.1734C68.6131 27.2267 68.6664 27.76 67.7864 28.08C67.4664 28.2134 67.0131 28.2934 66.3998 28.2934C64.5598 28.2934 63.7331 27.76 63.7331 27.76L63.0131 28.7467C63.0931 28.8267 64.1331 29.52 66.3998 29.52C67.1198 29.52 67.7864 29.4134 68.1864 29.2534C69.1464 28.88 69.8664 28.2934 69.8931 27.12V20.48H68.6131V24.64C68.6131 24.64 67.1464 25.04 65.2531 25.04C64.8798 25.04 64.1864 24.96 64.0798 24.3734V20.8267H62.7998V24.3734C62.8798 25.6534 63.9998 26.24 65.2264 26.24Z" fill="white"/>
</g>
<defs>
<clipPath id="clip0_220_7830">
<rect width="100" height="67.7333" fill="white"/>
</clipPath>
</defs>
</svg>
