<svg width="155" height="57" viewBox="0 0 155 57" fill="none" xmlns="http://www.w3.org/2000/svg">
<path d="M155 57H0V0H155V57ZM3.3593 53.6594H151.641V3.34057H3.3593V53.6594Z" fill="white"/>
<path d="M16.1244 24.2292C16.1244 24.7971 15.8399 24.9622 15.2925 24.9622H12.9647C12.3937 24.9622 12.1328 24.7971 12.1328 24.2292V10.6429C12.1328 9.86278 12.3699 9.65056 13.1781 9.57982C14.1998 9.48549 15.5534 9.46191 17.1935 9.46191H17.478C19.8533 9.46191 21.5171 9.86278 22.4913 10.8551C23.2047 11.5881 23.5604 12.6276 23.5604 14.2822V15.0859C23.5604 16.8819 23.0387 18.1101 22.0625 18.8194C20.9697 19.6231 19.4008 19.9533 17.2627 19.9533H16.1225V24.2292H16.1244ZM17.3595 12.6512C17.0275 12.6512 16.5987 12.6748 16.3141 12.6983C16.1719 12.7219 16.1244 12.8162 16.1244 12.9813V16.7149H17.3595C18.2625 16.7149 18.8079 16.5734 19.1182 16.314C19.4264 16.0546 19.545 15.5811 19.545 14.9208V14.3293C19.545 13.7378 19.4264 13.337 19.1419 13.0776C18.8573 12.7946 18.3811 12.6531 17.6678 12.6531H17.3595V12.6512Z" fill="white"/>
<path d="M34.3022 24.9624C33.328 24.9624 33.2095 24.7501 33.0435 24.1822L32.4961 22.2211H28.0045L27.4572 24.1822C27.2912 24.7737 27.1726 24.9624 26.1984 24.9624H24.1315C23.6078 24.9624 23.3232 24.8444 23.3232 24.4416C23.3232 24.2766 23.3944 24.0172 23.6552 23.1427C24.9851 18.7233 26.151 14.6596 27.4809 10.7374C27.7417 9.95728 28.1468 9.67432 29.1684 9.67432H31.3302C32.3519 9.67432 32.755 9.95728 33.0178 10.7374C34.3477 14.6596 35.561 18.7233 36.8909 23.1427C37.1517 24.0172 37.2228 24.2766 37.2228 24.4416C37.2228 24.8425 36.9383 24.9624 36.4146 24.9624H34.3002H34.3022ZM31.8065 19.1498C31.4033 17.6603 30.8323 15.4633 30.3817 13.8088H30.1209C29.6446 15.4633 29.0755 17.6603 28.6961 19.1498H31.8084H31.8065Z" fill="white"/>
<path d="M44.6844 25.1744C42.3566 25.1744 40.7639 24.6792 39.7423 23.5906C38.7681 22.5747 38.3887 21.0616 38.3887 18.7703V15.864C38.3887 13.5728 38.7918 12.0833 39.766 11.0674C40.7876 9.9807 42.3803 9.45996 44.7081 9.45996H44.8741C46.4194 9.45996 48.2729 9.83725 49.5317 10.4995C49.8874 10.6881 49.9822 10.9003 49.8162 11.3503L49.0317 13.335C48.9369 13.5708 48.8183 13.6887 48.6286 13.6887C48.4863 13.6887 48.3203 13.6416 48.1781 13.5708C47.1564 13.0737 46.1348 12.7671 45.0421 12.7671H44.9472C43.9019 12.7671 43.2597 13.0265 42.904 13.618C42.5483 14.2095 42.4514 15.0839 42.4514 16.43V18.1081C42.4514 19.5485 42.57 20.5192 43.1174 21.1323C43.5462 21.6059 44.2338 21.8653 45.3503 21.8653H45.4452C46.3008 21.8653 47.5833 21.5587 48.3915 21.2031C48.51 21.1559 48.6286 21.1087 48.7709 21.1087C48.9606 21.1087 49.1029 21.2266 49.1977 21.6059L49.6008 23.3076C49.6482 23.4963 49.672 23.6377 49.672 23.7556C49.672 24.0386 49.5297 24.2037 48.9586 24.4179C47.8658 24.8423 46.2969 25.1744 44.9195 25.1744H44.6824H44.6844Z" fill="white"/>
<path d="M56.1371 24.2294C56.1371 24.8916 56.0423 24.9624 55.3052 24.9624H52.9774C52.2404 24.9624 52.1455 24.8916 52.1455 24.2294V10.4073C52.1455 9.74506 52.2404 9.67432 52.9774 9.67432H55.3052C56.0423 9.67432 56.1371 9.74506 56.1371 10.4073V15.5577H56.2557C56.4691 15.5577 56.5403 15.4398 56.6825 15.2039L59.9134 10.2658C60.1979 9.81777 60.4608 9.67432 61.101 9.67432H63.7153C64.4998 9.67432 64.737 9.95728 64.3101 10.5723L59.9865 16.5264C59.7968 16.7858 59.6782 16.9037 59.6782 17.0472C59.6782 17.2122 59.8205 17.3537 59.9865 17.5915L64.4307 24.2314C64.7389 24.7285 64.5018 24.9643 63.7884 24.9643H61.269C60.437 24.9643 60.2236 24.8464 59.9628 24.42L56.7556 19.1281C56.5659 18.798 56.4711 18.7273 56.2814 18.7273H56.1391V24.2333L56.1371 24.2294Z" fill="white"/>
<path d="M75.479 24.2294C75.479 24.8916 75.3841 24.9624 74.647 24.9624H72.3192C71.5822 24.9624 71.4873 24.8916 71.4873 24.2294V10.4073C71.4873 9.74506 71.5822 9.67432 72.3192 9.67432H74.647C75.3841 9.67432 75.479 9.74506 75.479 10.4073V24.2294Z" fill="white"/>
<path d="M82.3199 16.998H82.2725V24.1567C82.2725 24.8189 82.0828 24.9604 81.4406 24.9604H79.4448C78.8026 24.9604 78.5654 24.8189 78.5654 24.1567V10.4544C78.5654 9.8158 78.8026 9.67432 79.3973 9.67432H80.4427C81.2035 9.67432 81.5829 9.79222 81.9642 10.3365L87.1909 18.0867H87.2383V10.478C87.2383 9.8158 87.4755 9.67432 88.1177 9.67432H90.1135C90.7557 9.67432 90.9454 9.8158 90.9454 10.478V24.1822C90.9454 24.8209 90.7083 24.9624 90.1135 24.9624H89.0682C88.3074 24.9624 87.928 24.8209 87.5466 24.3001L82.3199 16.998Z" fill="white"/>
<path d="M99.4056 20.5194C100.19 18.014 101.235 13.7145 101.949 10.3346C102.091 9.69594 102.233 9.67236 102.923 9.67236H105.18C105.917 9.67236 106.059 9.81385 105.964 10.2874C105.109 14.6341 103.397 20.4487 101.901 24.1331C101.688 24.6538 101.378 24.9604 100.498 24.9604H98.1706C97.2912 24.9604 96.983 24.6538 96.7676 24.1331C95.2697 20.4467 93.5604 14.6341 92.7048 10.2874C92.61 9.81385 92.7522 9.67236 93.4893 9.67236H95.7697C96.4593 9.67236 96.6016 9.69594 96.7439 10.3346C97.4572 13.7125 98.5026 18.014 99.2871 20.5194H99.4056Z" fill="white"/>
<path d="M111.19 18.6762C111.19 19.645 111.237 20.5901 111.332 21.3231C111.38 21.6532 111.546 21.7476 111.856 21.7476H116.917C117.654 21.7476 117.725 21.8419 117.725 22.4805V24.2294C117.725 24.7973 117.654 24.9624 116.917 24.9624H111.19C108.862 24.9624 107.793 24.4652 107.602 22.4805C107.459 21.0382 107.436 19.4799 107.436 17.9196V16.4773C107.436 15.4614 107.459 13.9719 107.578 12.673C107.791 10.2383 108.742 9.67236 111.261 9.67236H116.94C117.701 9.67236 117.725 9.79027 117.725 10.4053V12.1778C117.725 12.7457 117.701 12.8872 116.94 12.8872H111.903C111.475 12.8872 111.332 13.0287 111.309 13.3607C111.285 13.8324 111.261 14.8738 111.237 15.6991H116.251C116.846 15.6991 117.012 15.8171 117.012 16.3849V18.0395C117.012 18.5367 116.846 18.6782 116.251 18.6782H111.19V18.6762Z" fill="white"/>
<path d="M124.781 25.1744C123.428 25.1744 121.503 24.8914 120.434 24.5122C119.816 24.2999 119.697 24.017 119.768 23.567L120.076 21.653C120.148 21.1559 120.432 21.0144 120.908 21.1795C122.262 21.653 123.689 21.9124 124.71 21.9124H124.829C126.303 21.9124 126.825 21.5351 126.825 20.5664V20.3306C126.825 19.3382 126.35 19.1496 124.947 18.8902L123.331 18.5836C120.551 18.0629 119.719 16.6933 119.719 14.4256V13.7634C119.719 12.4173 120.074 11.425 120.788 10.7392C121.691 9.86474 123.139 9.46387 125.517 9.46387H125.683C127.107 9.46387 128.771 9.72325 129.722 10.0789C130.22 10.2676 130.316 10.527 130.172 11.142L129.769 12.8673C129.674 13.3154 129.413 13.4352 128.89 13.2682C127.821 12.9381 126.823 12.771 125.754 12.771H125.659C124.066 12.771 123.592 13.1012 123.592 13.952V14.1642C123.592 14.9208 123.924 15.1566 125.137 15.3924L126.943 15.7461C129.7 16.2904 130.698 17.1157 130.698 19.9985V20.5664C130.698 23.6849 129.105 25.1744 125.066 25.1744H124.781Z" fill="white"/>
<path d="M132.455 12.8872C131.837 12.8872 131.694 12.7457 131.694 12.1778V10.4053C131.694 9.79027 131.837 9.67236 132.455 9.67236H143.871C144.489 9.67236 144.632 9.79027 144.632 10.4053V12.1778C144.632 12.7457 144.489 12.8872 143.871 12.8872H140.759V24.2058C140.759 24.7973 139.441 24.9624 138.705 24.9624H136.449C135.712 24.9624 135.569 24.7973 135.569 24.2058V12.8872H132.457H132.455Z" fill="white"/>
<path d="M21.8095 47.4247C20.944 47.4247 20.8392 47.236 20.691 46.733L20.2049 44.99H16.2152L15.7291 46.733C15.5809 47.2576 15.4762 47.4247 14.6107 47.4247H12.7749C12.3106 47.4247 12.0576 47.3205 12.0576 46.9629C12.0576 46.8155 12.1209 46.5856 12.352 45.8094C13.5337 41.8852 14.5692 38.2734 15.7509 34.7894C15.9821 34.0977 16.3417 33.8442 17.2487 33.8442H19.1695C20.0765 33.8442 20.4361 34.0958 20.6673 34.7894C21.849 38.2734 22.9259 41.8832 24.1076 45.8094C24.3388 46.5856 24.404 46.8175 24.404 46.9629C24.404 47.3205 24.1511 47.4247 23.6867 47.4247H21.8075H21.8095ZM19.5923 42.2605C19.2327 40.938 18.7268 38.9868 18.3257 37.5169H18.0945C17.6716 38.9868 17.1657 40.938 16.8278 42.2605H19.5923Z" fill="white"/>
<path d="M29.5343 44.088C29.5343 44.4024 29.6608 44.5714 30.0402 44.5714H33.4173C34.0931 44.5714 34.1563 44.6972 34.1563 45.2434V46.7546C34.1563 47.2792 34.0931 47.4266 33.4173 47.4266H28.3092C26.5564 47.4266 25.9873 46.7978 25.9873 45.1589V34.4966C25.9873 33.9091 26.0723 33.8462 26.7264 33.8462H28.815C29.4474 33.8462 29.5323 33.9091 29.5323 34.4966V44.088H29.5343Z" fill="white"/>
<path d="M39.5587 44.088C39.5587 44.4024 39.6852 44.5714 40.0646 44.5714H43.4417C44.1175 44.5714 44.1807 44.6972 44.1807 45.2434V46.7546C44.1807 47.2792 44.1175 47.4266 43.4417 47.4266H38.3336C36.5808 47.4266 36.0117 46.7978 36.0117 45.1589V34.4966C36.0117 33.9091 36.0967 33.8462 36.7508 33.8462H38.8395C39.4718 33.8462 39.5568 33.9091 39.5568 34.4966V44.088H39.5587Z" fill="white"/>
<path d="M54.2482 46.7742C54.2482 47.3618 54.1632 47.4247 53.5092 47.4247H51.4402C50.7861 47.4247 50.7012 47.3618 50.7012 46.7742V34.4947C50.7012 33.9071 50.7861 33.8442 51.4402 33.8442H53.5092C54.1632 33.8442 54.2482 33.9071 54.2482 34.4947V46.7742Z" fill="white"/>
<path d="M60.3268 40.3505H60.2853V46.7094C60.2853 47.2969 60.1173 47.4227 59.5462 47.4227H57.7737C57.2046 47.4227 56.9932 47.2969 56.9932 46.7094V34.5359C56.9932 33.97 57.2046 33.8442 57.7322 33.8442H58.6609C59.3368 33.8442 59.6747 33.9484 60.0126 34.4318L64.6563 41.3153H64.6978V34.5575C64.6978 33.97 64.9092 33.8442 65.4783 33.8442H67.2509C67.82 33.8442 67.9899 33.97 67.9899 34.5575V46.731C67.9899 47.2969 67.7785 47.4227 67.2509 47.4227H66.3221C65.6463 47.4227 65.3084 47.2969 64.9705 46.8351L60.3268 40.3485V40.3505Z" fill="white"/>
<path d="M75.9038 47.6135C73.8349 47.6135 72.422 47.1733 71.513 46.2065C70.6475 45.3045 70.3096 43.9604 70.3096 41.9247V39.3426C70.3096 37.3068 70.6692 35.9843 71.5328 35.0824C72.4398 34.1175 73.8546 33.6558 75.9236 33.6558H76.0718C77.4431 33.6558 79.0892 33.9918 80.2096 34.5793C80.5258 34.7464 80.6108 34.937 80.4626 35.3359L79.767 37.0985C79.682 37.3088 79.5773 37.4129 79.4074 37.4129C79.2809 37.4129 79.1327 37.3717 79.0062 37.3088C78.0992 36.8686 77.1902 36.5955 76.22 36.5955H76.135C75.2062 36.5955 74.6371 36.8254 74.319 37.352C74.0028 37.8767 73.9179 38.6529 73.9179 39.8496V41.3391C73.9179 42.6203 74.0226 43.479 74.5087 44.0253C74.8881 44.4458 75.5007 44.6757 76.4927 44.6757H76.5776C77.3364 44.6757 78.4766 44.4026 79.1939 44.0882C79.2987 44.0469 79.4054 44.0037 79.5318 44.0037C79.6998 44.0037 79.8263 44.1078 79.9112 44.4438L80.2709 45.955C80.3124 46.122 80.3341 46.2497 80.3341 46.3539C80.3341 46.6054 80.2077 46.7528 79.7018 46.9414C78.7315 47.3187 77.3384 47.6135 76.1133 47.6135H75.9018H75.9038Z" fill="white"/>
<path d="M86.0333 44.088C86.0333 44.4024 86.1598 44.5714 86.5392 44.5714H89.9163C90.5921 44.5714 90.6553 44.6972 90.6553 45.2434V46.7546C90.6553 47.2792 90.5921 47.4266 89.9163 47.4266H84.8082C83.0554 47.4266 82.4863 46.7978 82.4863 45.1589V34.4966C82.4863 33.9091 82.5713 33.8462 83.2254 33.8462H85.3141C85.9464 33.8462 86.0314 33.9091 86.0314 34.4966V44.088H86.0333Z" fill="white"/>
<path d="M99.8162 34.4947C99.8162 33.9071 99.8794 33.8442 100.555 33.8442H102.624C103.3 33.8442 103.363 33.9071 103.363 34.4947V42.681C103.363 44.5066 103.025 45.5775 102.075 46.4598C101.231 47.2163 99.8794 47.6133 97.9804 47.6133H97.7275C95.7653 47.6133 94.4552 47.2144 93.6114 46.4598C92.6609 45.5775 92.3447 44.3611 92.3447 42.681V34.4947C92.3447 33.9071 92.408 33.8442 93.0838 33.8442H95.1527C95.8285 33.8442 95.9135 33.9071 95.9135 34.4947V42.5749C95.9135 43.414 96.0182 43.9387 96.3364 44.255C96.6328 44.5498 97.1169 44.6756 97.8145 44.6756H97.9192C98.6148 44.6756 99.1009 44.5498 99.3973 44.255C99.7134 43.9406 99.8201 43.416 99.8201 42.5749V34.4947H99.8162Z" fill="white"/>
<path d="M109.884 47.613C108.681 47.613 106.972 47.3615 106.021 47.0254C105.472 46.8368 105.367 46.5853 105.43 46.1864L105.705 44.4866C105.768 44.0464 106.021 43.9207 106.444 44.0661C107.647 44.4866 108.914 44.7165 109.821 44.7165H109.926C111.234 44.7165 111.698 44.3805 111.698 43.5198V43.3095C111.698 42.4272 111.275 42.2602 110.03 42.0283L108.596 41.7552C106.126 41.2934 105.387 40.0751 105.387 38.0609V37.4734C105.387 36.2767 105.703 35.3963 106.337 34.7872C107.139 34.011 108.426 33.6533 110.538 33.6533H110.687C111.953 33.6533 113.429 33.8832 114.275 34.1996C114.718 34.3666 114.803 34.5985 114.676 35.1448L114.317 36.6775C114.232 37.0764 114 37.1806 113.536 37.0352C112.586 36.7404 111.7 36.595 110.75 36.595H110.665C109.25 36.595 108.829 36.8897 108.829 37.6443V37.833C108.829 38.505 109.123 38.7153 110.2 38.9236L111.805 39.238C114.253 39.7214 115.141 40.4563 115.141 43.0167V43.5198C115.141 46.2905 113.726 47.613 110.139 47.613H109.886H109.884Z" fill="white"/>
<path d="M120.879 46.7742C120.879 47.3618 120.794 47.4247 120.14 47.4247H118.071C117.417 47.4247 117.332 47.3618 117.332 46.7742V34.4947C117.332 33.9071 117.417 33.8442 118.071 33.8442H120.14C120.794 33.8442 120.879 33.9071 120.879 34.4947V46.7742Z" fill="white"/>
<path d="M128.435 43.4788C129.131 41.2544 130.06 37.4344 130.694 34.4318C130.82 33.8659 130.947 33.8442 131.56 33.8442H133.565C134.219 33.8442 134.346 33.97 134.261 34.3905C133.5 38.2518 131.98 43.416 130.651 46.6897C130.461 47.1515 130.186 47.4247 129.406 47.4247H127.337C126.556 47.4247 126.281 47.1515 126.092 46.6897C124.762 43.416 123.242 38.2518 122.482 34.3905C122.397 33.97 122.523 33.8442 123.177 33.8442H125.203C125.815 33.8442 125.942 33.8659 126.068 34.4318C126.7 37.4324 127.629 41.2525 128.327 43.4788H128.431H128.435Z" fill="white"/>
<path d="M138.903 41.842C138.903 42.7027 138.944 43.5417 139.029 44.1922C139.071 44.4869 139.219 44.5695 139.494 44.5695H143.989C144.643 44.5695 144.707 44.654 144.707 45.2199V46.7723C144.707 47.2753 144.643 47.4227 143.989 47.4227H138.903C136.834 47.4227 135.886 46.9825 135.716 45.2179C135.589 43.9367 135.567 42.5514 135.567 41.168V39.8868C135.567 38.9848 135.589 37.6623 135.694 36.5069C135.884 34.3453 136.727 33.8403 138.966 33.8403H144.011C144.687 33.8403 144.707 33.9445 144.707 34.4908V36.0648C144.707 36.5678 144.685 36.6936 144.011 36.6936H139.535C139.156 36.6936 139.029 36.8193 139.008 37.1141C138.986 37.5346 138.966 38.4582 138.944 39.1911H143.398C143.926 39.1911 144.074 39.2953 144.074 39.8003V41.2702C144.074 41.7103 143.926 41.8361 143.398 41.8361H138.903V41.842Z" fill="white"/>
</svg>
