<svg width="134" height="24" viewBox="0 0 134 24" fill="none" xmlns="http://www.w3.org/2000/svg">
<rect width="134" height="24" rx="3" fill="#48ACCF"/>
<path d="M8.53448 8.798C9.21048 8.798 9.50948 8.876 9.76948 9.084C10.0035 9.279 10.1075 9.552 10.1075 10.085V10.254C10.1075 11.307 9.67848 11.684 8.49548 11.684H7.68948V9.006C7.68948 8.902 7.74148 8.837 7.83248 8.824C8.02748 8.798 8.30048 8.798 8.53448 8.798ZM7.68948 13.049H8.44348C9.52248 13.049 10.3285 12.88 10.9395 12.399C11.4855 11.97 11.7845 11.281 11.7845 10.319V10.085C11.7845 9.136 11.5505 8.486 11.0175 8.07C10.4585 7.628 9.61348 7.472 8.49548 7.472C7.70248 7.472 7.01348 7.485 6.50648 7.55C6.15548 7.589 6.05148 7.706 6.05148 8.096V15.675C6.05148 15.948 6.11648 16 6.40248 16H7.33848C7.62448 16 7.68948 15.948 7.68948 15.675V13.049ZM15.6663 9.253C16.0043 10.358 16.3423 11.541 16.6673 12.698H14.5093C14.8343 11.541 15.1723 10.358 15.5103 9.253H15.6663ZM14.1323 14.063H17.0443L17.4733 15.662C17.5513 15.948 17.6943 16 18.0323 16H18.7213C19.0853 16 19.2803 16 19.1893 15.662C18.4613 13.023 17.5253 10.085 16.7843 8.057C16.6413 7.654 16.4333 7.589 15.9003 7.589H15.2633C14.7303 7.589 14.5483 7.654 14.4053 8.057C13.6773 10.085 12.7023 13.023 11.9743 15.662C11.8833 16 12.0913 16 12.4553 16H13.1443C13.4823 16 13.6253 15.948 13.7033 15.662L14.1323 14.063ZM23.3147 7.472C22.3137 7.472 21.5727 7.667 21.0397 8.083C20.1817 8.772 19.9087 9.721 19.9087 11.541V12.061C19.9087 13.764 20.1427 14.739 20.7667 15.363C21.3127 15.909 22.0797 16.117 23.2887 16.117C24.0427 16.117 24.7967 15.961 25.4207 15.714C25.7327 15.597 25.7457 15.48 25.6937 15.246L25.5377 14.622C25.4857 14.401 25.3427 14.336 25.1477 14.414C24.6667 14.622 24.0427 14.765 23.4837 14.765C22.7687 14.765 22.2877 14.596 22.0277 14.284C21.7157 13.907 21.5857 13.257 21.5857 11.905V11.671C21.5857 10.384 21.6767 9.63 22.0797 9.227C22.3527 8.954 22.6777 8.824 23.3147 8.824C23.8737 8.824 24.4587 8.993 25.0047 9.292C25.1607 9.383 25.3427 9.396 25.4207 9.214L25.7327 8.434C25.8107 8.226 25.7847 8.135 25.6417 8.057C25.0047 7.68 24.1467 7.472 23.3147 7.472ZM28.7383 12.347H29.1283C29.3233 12.347 29.4013 12.412 29.4793 12.542L31.4033 15.753C31.5203 15.948 31.6113 16 31.9233 16H32.9763C33.2753 16 33.3663 15.883 33.2363 15.675L30.8053 11.879C30.7533 11.801 30.6753 11.684 30.6753 11.619C30.6753 11.541 30.7533 11.45 30.8053 11.372L33.2103 7.966C33.3793 7.719 33.2753 7.589 32.9633 7.589H31.9233C31.6243 7.589 31.5333 7.654 31.4033 7.849L29.4273 10.813C29.3363 10.943 29.2713 11.008 29.0763 11.008H28.7383V7.914C28.7383 7.641 28.6733 7.589 28.3873 7.589H27.4513C27.1653 7.589 27.1003 7.641 27.1003 7.914V15.675C27.1003 15.948 27.1653 16 27.4513 16H28.3873C28.6733 16 28.7383 15.948 28.7383 15.675V12.347ZM39.4273 16.117C40.5323 16.117 41.3123 15.948 41.8063 15.506C42.2743 15.09 42.5083 14.401 42.5083 13.595V13.4C42.5083 12.75 42.4043 12.269 42.1183 11.905C41.7933 11.502 41.3123 11.281 40.5193 11.112L39.5703 10.917C39.1673 10.839 38.8683 10.735 38.6993 10.566C38.5433 10.41 38.4913 10.228 38.4913 9.903V9.799C38.4913 9.383 38.6083 9.149 38.7903 9.019C38.9853 8.889 39.2713 8.824 39.8303 8.824C40.3503 8.824 40.9353 8.941 41.5073 9.123C41.7413 9.201 41.8713 9.149 41.9103 8.967L42.1053 8.148C42.1573 7.914 42.1053 7.836 41.8843 7.771C41.4293 7.628 40.5843 7.472 39.7913 7.472C38.8293 7.472 38.1273 7.615 37.6463 7.966C37.1523 8.343 36.8923 8.928 36.8923 9.76V9.929C36.8923 10.618 37.0743 11.177 37.3863 11.515C37.7243 11.892 38.1533 12.074 38.9723 12.256L39.8693 12.451C40.3113 12.555 40.5973 12.659 40.7533 12.854C40.8573 12.984 40.9093 13.205 40.9093 13.543V13.647C40.9093 14.05 40.8573 14.31 40.6493 14.479C40.3893 14.7 39.9863 14.765 39.3883 14.765C38.8163 14.765 37.9453 14.557 37.4253 14.362C37.2563 14.297 37.1003 14.336 37.0613 14.57L36.9183 15.324C36.8663 15.571 36.9443 15.662 37.1913 15.74C37.7893 15.935 38.7383 16.117 39.4273 16.117ZM48.2122 12.334C48.5112 12.334 48.5372 12.256 48.5372 12.022V11.307C48.5372 11.06 48.5112 10.995 48.2122 10.995H45.3002C45.3002 10.358 45.3392 9.773 45.3782 9.318C45.4042 9.019 45.5602 8.928 45.8072 8.928H48.6412C48.9402 8.928 48.9662 8.85 48.9662 8.616V7.901C48.9662 7.654 48.9402 7.589 48.6412 7.589H45.6512C45.0402 7.589 44.6112 7.641 44.3122 7.875C44.0262 8.109 43.8702 8.46 43.8052 9.097C43.7272 9.786 43.6882 10.774 43.6882 11.528V12.061C43.6882 12.854 43.7272 13.803 43.8052 14.492C43.8832 15.103 43.9742 15.454 44.2602 15.688C44.5462 15.922 44.9882 16 45.6512 16H48.6282C48.9272 16 48.9662 15.922 48.9662 15.688V14.973C48.9662 14.726 48.9272 14.661 48.6282 14.661H45.8072C45.5342 14.661 45.4172 14.596 45.3912 14.297C45.3262 13.634 45.3002 13.036 45.3002 12.334H48.2122ZM45.4952 5.964C45.3652 6.042 45.3262 6.159 45.4432 6.354L45.6772 6.757C45.7682 6.913 45.9112 6.991 46.1322 6.9L48.3422 5.977C48.5892 5.873 48.6152 5.769 48.4982 5.548L48.1212 4.859C48.0172 4.677 47.9262 4.638 47.7182 4.755L45.4952 5.964ZM52.8148 8.798C53.5298 8.798 53.8938 8.876 54.1018 9.071C54.2968 9.253 54.3618 9.5 54.3618 9.955V10.111C54.3618 10.553 54.2708 10.904 53.9978 11.099C53.7638 11.268 53.3348 11.346 52.5808 11.346H52.0088V9.006C52.0088 8.876 52.0478 8.837 52.1648 8.824C52.3338 8.798 52.5548 8.798 52.8148 8.798ZM52.0088 12.685H52.6718C52.8148 12.685 52.8798 12.711 52.9318 12.815L54.5568 15.714C54.6738 15.909 54.7908 16 55.1028 16H56.0518C56.3768 16 56.4548 15.896 56.3508 15.727L54.4268 12.542C55.5318 12.165 56.0388 11.32 56.0388 10.137V9.916C56.0388 9.032 55.8308 8.447 55.3758 8.083C54.8038 7.641 53.9848 7.472 52.7108 7.472C51.8918 7.472 51.3068 7.511 50.8258 7.576C50.4748 7.628 50.3708 7.732 50.3708 8.122V15.675C50.3708 15.948 50.4358 16 50.7218 16H51.6578C51.9438 16 52.0088 15.948 52.0088 15.675V12.685ZM61.9231 12.334C62.2221 12.334 62.2481 12.256 62.2481 12.022V11.307C62.2481 11.06 62.2221 10.995 61.9231 10.995H59.0111C59.0111 10.358 59.0501 9.773 59.0891 9.318C59.1151 9.019 59.2711 8.928 59.5181 8.928H62.3521C62.6511 8.928 62.6771 8.85 62.6771 8.616V7.901C62.6771 7.654 62.6511 7.589 62.3521 7.589H59.3621C58.7511 7.589 58.3221 7.641 58.0231 7.875C57.7371 8.109 57.5811 8.46 57.5161 9.097C57.4381 9.786 57.3991 10.774 57.3991 11.528V12.061C57.3991 12.854 57.4381 13.803 57.5161 14.492C57.5941 15.103 57.6851 15.454 57.9711 15.688C58.2571 15.922 58.6991 16 59.3621 16H62.3391C62.6381 16 62.6771 15.922 62.6771 15.688V14.973C62.6771 14.726 62.6381 14.661 62.3391 14.661H59.5181C59.2451 14.661 59.1281 14.596 59.1021 14.297C59.0371 13.634 59.0111 13.036 59.0111 12.334H61.9231ZM59.2061 5.964C59.0761 6.042 59.0371 6.159 59.1541 6.354L59.3881 6.757C59.4791 6.913 59.6221 6.991 59.8431 6.9L62.0531 5.977C62.3001 5.873 62.3261 5.769 62.2091 5.548L61.8321 4.859C61.7281 4.677 61.6371 4.638 61.4291 4.755L59.2061 5.964ZM64.0818 15.675C64.0818 15.948 64.1468 16 64.4328 16H65.2518C65.5378 16 65.6028 15.948 65.6028 15.675V10.449H65.6548L68.8918 15.688C69.0478 15.935 69.1908 16 69.5288 16H70.3088C70.5948 16 70.6598 15.948 70.6598 15.675V7.914C70.6598 7.641 70.5948 7.589 70.3088 7.589H69.4898C69.2038 7.589 69.1388 7.641 69.1388 7.914V13.257H69.0868L65.8498 7.901C65.6938 7.654 65.5508 7.589 65.2128 7.589H64.4328C64.1468 7.589 64.0818 7.641 64.0818 7.914V15.675ZM74.1126 7.914C74.1126 7.641 74.0476 7.589 73.7616 7.589H72.8256C72.5396 7.589 72.4746 7.641 72.4746 7.914V15.675C72.4746 15.948 72.5396 16 72.8256 16H73.7616C74.0476 16 74.1126 15.948 74.1126 15.675V7.914ZM78.9945 8.928H80.8145C81.1135 8.928 81.1395 8.85 81.1395 8.616V7.901C81.1395 7.654 81.0745 7.589 80.8145 7.589H75.5365C75.2765 7.589 75.2115 7.654 75.2115 7.901V8.616C75.2115 8.85 75.2375 8.928 75.5365 8.928H77.3565V15.675C77.3565 15.948 77.4215 16 77.7075 16H78.6435C78.9295 16 78.9945 15.948 78.9945 15.675V8.928ZM86.514 12.334C86.813 12.334 86.839 12.256 86.839 12.022V11.307C86.839 11.06 86.813 10.995 86.514 10.995H83.602C83.602 10.358 83.641 9.773 83.68 9.318C83.706 9.019 83.862 8.928 84.109 8.928H86.943C87.242 8.928 87.268 8.85 87.268 8.616V7.901C87.268 7.654 87.242 7.589 86.943 7.589H83.953C83.342 7.589 82.913 7.641 82.614 7.875C82.328 8.109 82.172 8.46 82.107 9.097C82.029 9.786 81.99 10.774 81.99 11.528V12.061C81.99 12.854 82.029 13.803 82.107 14.492C82.185 15.103 82.276 15.454 82.562 15.688C82.848 15.922 83.29 16 83.953 16H86.93C87.229 16 87.268 15.922 87.268 15.688V14.973C87.268 14.726 87.229 14.661 86.93 14.661H84.109C83.836 14.661 83.719 14.596 83.693 14.297C83.628 13.634 83.602 13.036 83.602 12.334H86.514ZM83.797 5.964C83.667 6.042 83.628 6.159 83.745 6.354L83.979 6.757C84.07 6.913 84.213 6.991 84.434 6.9L86.644 5.977C86.891 5.873 86.917 5.769 86.8 5.548L86.423 4.859C86.319 4.677 86.228 4.638 86.02 4.755L83.797 5.964ZM93.2825 7.914C93.2825 7.641 93.2175 7.589 92.9315 7.589H91.9955C91.7095 7.589 91.6445 7.641 91.6445 7.914V15.675C91.6445 15.948 91.7095 16 91.9955 16H92.9315C93.2175 16 93.2825 15.948 93.2825 15.675V7.914ZM95.0964 15.675C95.0964 15.948 95.1614 16 95.4474 16H96.2664C96.5524 16 96.6174 15.948 96.6174 15.675V10.449H96.6694L99.9064 15.688C100.062 15.935 100.205 16 100.543 16H101.323C101.609 16 101.674 15.948 101.674 15.675V7.914C101.674 7.641 101.609 7.589 101.323 7.589H100.504C100.218 7.589 100.153 7.641 100.153 7.914V13.257H100.101L96.8644 7.901C96.7084 7.654 96.5654 7.589 96.2274 7.589H95.4474C95.1614 7.589 95.0964 7.641 95.0964 7.914V15.675ZM106.596 16C107.012 16 107.155 15.883 107.259 15.584C108 13.465 108.936 10.41 109.534 7.888C109.586 7.667 109.495 7.589 109.209 7.589H108.312C108.039 7.589 107.948 7.615 107.883 7.888C107.415 9.994 106.778 12.438 106.18 14.232H106.089C105.491 12.438 104.854 9.994 104.386 7.888C104.321 7.615 104.23 7.589 103.957 7.589H103.06C102.774 7.589 102.683 7.667 102.735 7.888C103.333 10.41 104.269 13.465 105.01 15.584C105.114 15.883 105.257 16 105.673 16H106.596ZM114.913 12.334C115.212 12.334 115.238 12.256 115.238 12.022V11.307C115.238 11.06 115.212 10.995 114.913 10.995H112.001C112.001 10.358 112.04 9.773 112.079 9.318C112.105 9.019 112.261 8.928 112.508 8.928H115.342C115.641 8.928 115.667 8.85 115.667 8.616V7.901C115.667 7.654 115.641 7.589 115.342 7.589H112.352C111.741 7.589 111.312 7.641 111.013 7.875C110.727 8.109 110.571 8.46 110.506 9.097C110.428 9.786 110.389 10.774 110.389 11.528V12.061C110.389 12.854 110.428 13.803 110.506 14.492C110.584 15.103 110.675 15.454 110.961 15.688C111.247 15.922 111.689 16 112.352 16H115.329C115.628 16 115.667 15.922 115.667 15.688V14.973C115.667 14.726 115.628 14.661 115.329 14.661H112.508C112.235 14.661 112.118 14.596 112.092 14.297C112.027 13.634 112.001 13.036 112.001 12.334H114.913ZM119.23 16.117C120.335 16.117 121.115 15.948 121.609 15.506C122.077 15.09 122.311 14.401 122.311 13.595V13.4C122.311 12.75 122.207 12.269 121.921 11.905C121.596 11.502 121.115 11.281 120.322 11.112L119.373 10.917C118.97 10.839 118.671 10.735 118.502 10.566C118.346 10.41 118.294 10.228 118.294 9.903V9.799C118.294 9.383 118.411 9.149 118.593 9.019C118.788 8.889 119.074 8.824 119.633 8.824C120.153 8.824 120.738 8.941 121.31 9.123C121.544 9.201 121.674 9.149 121.713 8.967L121.908 8.148C121.96 7.914 121.908 7.836 121.687 7.771C121.232 7.628 120.387 7.472 119.594 7.472C118.632 7.472 117.93 7.615 117.449 7.966C116.955 8.343 116.695 8.928 116.695 9.76V9.929C116.695 10.618 116.877 11.177 117.189 11.515C117.527 11.892 117.956 12.074 118.775 12.256L119.672 12.451C120.114 12.555 120.4 12.659 120.556 12.854C120.66 12.984 120.712 13.205 120.712 13.543V13.647C120.712 14.05 120.66 14.31 120.452 14.479C120.192 14.7 119.789 14.765 119.191 14.765C118.619 14.765 117.748 14.557 117.228 14.362C117.059 14.297 116.903 14.336 116.864 14.57L116.721 15.324C116.669 15.571 116.747 15.662 116.994 15.74C117.592 15.935 118.541 16.117 119.23 16.117ZM126.513 8.928H128.333C128.632 8.928 128.658 8.85 128.658 8.616V7.901C128.658 7.654 128.593 7.589 128.333 7.589H123.055C122.795 7.589 122.73 7.654 122.73 7.901V8.616C122.73 8.85 122.756 8.928 123.055 8.928H124.875V15.675C124.875 15.948 124.94 16 125.226 16H126.162C126.448 16 126.513 15.948 126.513 15.675V8.928Z" fill="white"/>
</svg>

