<svg width="119" height="24" viewBox="0 0 119 24" fill="none" xmlns="http://www.w3.org/2000/svg">
<rect width="119" height="24" rx="3" fill="#48ACCF"/>
<path d="M8.67071 8.798C9.34671 8.798 9.64571 8.876 9.90571 9.084C10.1397 9.279 10.2437 9.552 10.2437 10.085V10.254C10.2437 11.307 9.81471 11.684 8.63171 11.684H7.82571V9.006C7.82571 8.902 7.87771 8.837 7.96871 8.824C8.16371 8.798 8.43671 8.798 8.67071 8.798ZM7.82571 13.049H8.57971C9.65871 13.049 10.4647 12.88 11.0757 12.399C11.6217 11.97 11.9207 11.281 11.9207 10.319V10.085C11.9207 9.136 11.6867 8.486 11.1537 8.07C10.5947 7.628 9.74971 7.472 8.63171 7.472C7.83871 7.472 7.14971 7.485 6.64271 7.55C6.29171 7.589 6.18771 7.706 6.18771 8.096V15.675C6.18771 15.948 6.25271 16 6.53871 16H7.47471C7.76071 16 7.82571 15.948 7.82571 15.675V13.049ZM15.8025 9.253C16.1405 10.358 16.4785 11.541 16.8035 12.698H14.6455C14.9705 11.541 15.3085 10.358 15.6465 9.253H15.8025ZM14.2685 14.063H17.1805L17.6095 15.662C17.6875 15.948 17.8305 16 18.1685 16H18.8575C19.2215 16 19.4165 16 19.3255 15.662C18.5975 13.023 17.6615 10.085 16.9205 8.057C16.7775 7.654 16.5695 7.589 16.0365 7.589H15.3995C14.8665 7.589 14.6845 7.654 14.5415 8.057C13.8135 10.085 12.8385 13.023 12.1105 15.662C12.0195 16 12.2275 16 12.5915 16H13.2805C13.6185 16 13.7615 15.948 13.8395 15.662L14.2685 14.063ZM23.4509 7.472C22.4499 7.472 21.7089 7.667 21.1759 8.083C20.3179 8.772 20.0449 9.721 20.0449 11.541V12.061C20.0449 13.764 20.2789 14.739 20.9029 15.363C21.4489 15.909 22.2159 16.117 23.4249 16.117C24.1789 16.117 24.9329 15.961 25.5569 15.714C25.8689 15.597 25.8819 15.48 25.8299 15.246L25.6739 14.622C25.6219 14.401 25.4789 14.336 25.2839 14.414C24.8029 14.622 24.1789 14.765 23.6199 14.765C22.9049 14.765 22.4239 14.596 22.1639 14.284C21.8519 13.907 21.7219 13.257 21.7219 11.905V11.671C21.7219 10.384 21.8129 9.63 22.2159 9.227C22.4889 8.954 22.8139 8.824 23.4509 8.824C24.0099 8.824 24.5949 8.993 25.1409 9.292C25.2969 9.383 25.4789 9.396 25.5569 9.214L25.8689 8.434C25.9469 8.226 25.9209 8.135 25.7779 8.057C25.1409 7.68 24.2829 7.472 23.4509 7.472ZM28.8745 12.347H29.2645C29.4595 12.347 29.5375 12.412 29.6155 12.542L31.5395 15.753C31.6565 15.948 31.7475 16 32.0595 16H33.1125C33.4115 16 33.5025 15.883 33.3725 15.675L30.9415 11.879C30.8895 11.801 30.8115 11.684 30.8115 11.619C30.8115 11.541 30.8895 11.45 30.9415 11.372L33.3465 7.966C33.5155 7.719 33.4115 7.589 33.0995 7.589H32.0595C31.7605 7.589 31.6695 7.654 31.5395 7.849L29.5635 10.813C29.4725 10.943 29.4075 11.008 29.2125 11.008H28.8745V7.914C28.8745 7.641 28.8095 7.589 28.5235 7.589H27.5875C27.3015 7.589 27.2365 7.641 27.2365 7.914V15.675C27.2365 15.948 27.3015 16 27.5875 16H28.5235C28.8095 16 28.8745 15.948 28.8745 15.675V12.347ZM39.8885 8.798C40.5645 8.798 40.8635 8.876 41.1235 9.084C41.3575 9.279 41.4615 9.552 41.4615 10.085V10.254C41.4615 11.307 41.0325 11.684 39.8495 11.684H39.0435V9.006C39.0435 8.902 39.0955 8.837 39.1865 8.824C39.3815 8.798 39.6545 8.798 39.8885 8.798ZM39.0435 13.049H39.7975C40.8765 13.049 41.6825 12.88 42.2935 12.399C42.8395 11.97 43.1385 11.281 43.1385 10.319V10.085C43.1385 9.136 42.9045 8.486 42.3715 8.07C41.8125 7.628 40.9675 7.472 39.8495 7.472C39.0565 7.472 38.3675 7.485 37.8605 7.55C37.5095 7.589 37.4055 7.706 37.4055 8.096V15.675C37.4055 15.948 37.4705 16 37.7565 16H38.6925C38.9785 16 39.0435 15.948 39.0435 15.675V13.049ZM46.9969 8.798C47.7119 8.798 48.0759 8.876 48.2839 9.071C48.4789 9.253 48.5439 9.5 48.5439 9.955V10.111C48.5439 10.553 48.4529 10.904 48.1799 11.099C47.9459 11.268 47.5169 11.346 46.7629 11.346H46.1909V9.006C46.1909 8.876 46.2299 8.837 46.3469 8.824C46.5159 8.798 46.7369 8.798 46.9969 8.798ZM46.1909 12.685H46.8539C46.9969 12.685 47.0619 12.711 47.1139 12.815L48.7389 15.714C48.8559 15.909 48.9729 16 49.2849 16H50.2339C50.5589 16 50.6369 15.896 50.5329 15.727L48.6089 12.542C49.7139 12.165 50.2209 11.32 50.2209 10.137V9.916C50.2209 9.032 50.0129 8.447 49.5579 8.083C48.9859 7.641 48.1669 7.472 46.8929 7.472C46.0739 7.472 45.4889 7.511 45.0079 7.576C44.6569 7.628 44.5529 7.732 44.5529 8.122V15.675C44.5529 15.948 44.6179 16 44.9039 16H45.8399C46.1259 16 46.1909 15.948 46.1909 15.675V12.685ZM53.4793 7.914C53.4793 7.641 53.4143 7.589 53.1283 7.589H52.1923C51.9063 7.589 51.8413 7.641 51.8413 7.914V15.675C51.8413 15.948 51.9063 16 52.1923 16H53.1283C53.4143 16 53.4793 15.948 53.4793 15.675V7.914ZM59.8302 14.947C60.1552 14.947 60.3372 14.986 60.4542 14.661C60.8702 13.465 61.6762 11.203 62.1702 9.747H62.2352C62.2872 11.515 62.2612 13.764 62.2742 15.701C62.2742 16 62.3522 16 62.6512 16H63.5222C63.8212 16 63.9122 16 63.8992 15.701C63.8212 13.127 63.7822 10.371 63.6132 8.018C63.5872 7.615 63.4572 7.589 62.9762 7.589H62.1052C61.5852 7.589 61.4812 7.615 61.3642 7.979C60.7922 9.799 60.1422 11.684 59.5442 13.283H59.4792C58.9072 11.684 58.2832 9.799 57.6852 7.966C57.5682 7.602 57.4512 7.589 56.9312 7.589H56.0602C55.5792 7.589 55.4362 7.602 55.4102 8.005C55.2542 10.358 55.2022 13.127 55.1242 15.701C55.1112 16 55.2022 16 55.5012 16H56.3722C56.6712 16 56.7492 16 56.7492 15.701C56.7622 13.764 56.7362 11.515 56.7752 9.747H56.8402C57.3212 11.203 58.1272 13.478 58.6082 14.661C58.7382 14.973 58.8942 14.947 59.2192 14.947H59.8302ZM70.3492 11.931C70.3492 12.789 70.3102 13.647 69.9202 14.232C69.6732 14.596 69.2442 14.765 68.6332 14.765C68.0222 14.765 67.5932 14.596 67.3462 14.232C66.9432 13.647 66.9172 12.789 66.9172 11.931V11.658C66.9172 10.8 66.9432 9.942 67.3462 9.357C67.5932 8.993 68.0222 8.824 68.6332 8.824C69.2442 8.824 69.6732 8.993 69.9202 9.357C70.3102 9.942 70.3492 10.8 70.3492 11.658V11.931ZM72.0262 11.528C72.0262 10.176 71.7662 9.032 71.0642 8.317C70.5442 7.784 69.7642 7.472 68.6332 7.472C67.4242 7.472 66.7092 7.758 66.1762 8.317C65.5132 9.032 65.2402 10.176 65.2402 11.528V12.061C65.2402 13.413 65.5132 14.557 66.1762 15.272C66.7092 15.831 67.4242 16.117 68.6332 16.117C69.7642 16.117 70.5442 15.805 71.0642 15.272C71.7662 14.557 72.0262 13.413 72.0262 12.061V11.528ZM78.1463 7.914C78.1463 7.641 78.0813 7.589 77.7953 7.589H76.8593C76.5733 7.589 76.5083 7.641 76.5083 7.914V15.675C76.5083 15.948 76.5733 16 76.8593 16H77.7953C78.0813 16 78.1463 15.948 78.1463 15.675V7.914ZM79.9602 15.675C79.9602 15.948 80.0252 16 80.3112 16H81.1302C81.4162 16 81.4812 15.948 81.4812 15.675V10.449H81.5332L84.7702 15.688C84.9262 15.935 85.0692 16 85.4072 16H86.1872C86.4732 16 86.5382 15.948 86.5382 15.675V7.914C86.5382 7.641 86.4732 7.589 86.1872 7.589H85.3682C85.0822 7.589 85.0172 7.641 85.0172 7.914V13.257H84.9652L81.7282 7.901C81.5722 7.654 81.4292 7.589 81.0912 7.589H80.3112C80.0252 7.589 79.9602 7.641 79.9602 7.914V15.675ZM91.46 16C91.876 16 92.019 15.883 92.123 15.584C92.864 13.465 93.8 10.41 94.398 7.888C94.45 7.667 94.359 7.589 94.073 7.589H93.176C92.903 7.589 92.812 7.615 92.747 7.888C92.279 9.994 91.642 12.438 91.044 14.232H90.953C90.355 12.438 89.718 9.994 89.25 7.888C89.185 7.615 89.094 7.589 88.821 7.589H87.924C87.638 7.589 87.547 7.667 87.599 7.888C88.197 10.41 89.133 13.465 89.874 15.584C89.978 15.883 90.121 16 90.537 16H91.46ZM99.7771 12.334C100.076 12.334 100.102 12.256 100.102 12.022V11.307C100.102 11.06 100.076 10.995 99.7771 10.995H96.8651C96.8651 10.358 96.9041 9.773 96.9431 9.318C96.9691 9.019 97.1251 8.928 97.3721 8.928H100.206C100.505 8.928 100.531 8.85 100.531 8.616V7.901C100.531 7.654 100.505 7.589 100.206 7.589H97.2161C96.6051 7.589 96.1761 7.641 95.8771 7.875C95.5911 8.109 95.4351 8.46 95.3701 9.097C95.2921 9.786 95.2531 10.774 95.2531 11.528V12.061C95.2531 12.854 95.2921 13.803 95.3701 14.492C95.4481 15.103 95.5391 15.454 95.8251 15.688C96.1111 15.922 96.5531 16 97.2161 16H100.193C100.492 16 100.531 15.922 100.531 15.688V14.973C100.531 14.726 100.492 14.661 100.193 14.661H97.3721C97.0991 14.661 96.9821 14.596 96.9561 14.297C96.8911 13.634 96.8651 13.036 96.8651 12.334H99.7771ZM104.094 16.117C105.199 16.117 105.979 15.948 106.473 15.506C106.941 15.09 107.175 14.401 107.175 13.595V13.4C107.175 12.75 107.071 12.269 106.785 11.905C106.46 11.502 105.979 11.281 105.186 11.112L104.237 10.917C103.834 10.839 103.535 10.735 103.366 10.566C103.21 10.41 103.158 10.228 103.158 9.903V9.799C103.158 9.383 103.275 9.149 103.457 9.019C103.652 8.889 103.938 8.824 104.497 8.824C105.017 8.824 105.602 8.941 106.174 9.123C106.408 9.201 106.538 9.149 106.577 8.967L106.772 8.148C106.824 7.914 106.772 7.836 106.551 7.771C106.096 7.628 105.251 7.472 104.458 7.472C103.496 7.472 102.794 7.615 102.313 7.966C101.819 8.343 101.559 8.928 101.559 9.76V9.929C101.559 10.618 101.741 11.177 102.053 11.515C102.391 11.892 102.82 12.074 103.639 12.256L104.536 12.451C104.978 12.555 105.264 12.659 105.42 12.854C105.524 12.984 105.576 13.205 105.576 13.543V13.647C105.576 14.05 105.524 14.31 105.316 14.479C105.056 14.7 104.653 14.765 104.055 14.765C103.483 14.765 102.612 14.557 102.092 14.362C101.923 14.297 101.767 14.336 101.728 14.57L101.585 15.324C101.533 15.571 101.611 15.662 101.858 15.74C102.456 15.935 103.405 16.117 104.094 16.117ZM111.377 8.928H113.197C113.496 8.928 113.522 8.85 113.522 8.616V7.901C113.522 7.654 113.457 7.589 113.197 7.589H107.919C107.659 7.589 107.594 7.654 107.594 7.901V8.616C107.594 8.85 107.62 8.928 107.919 8.928H109.739V15.675C109.739 15.948 109.804 16 110.09 16H111.026C111.312 16 111.377 15.948 111.377 15.675V8.928Z" fill="white"/>
</svg>
