<svg width="123" height="30" viewBox="0 0 123 30" fill="none" xmlns="http://www.w3.org/2000/svg">
<g clip-path="url(#clip0_590_751)">
<path d="M32.118 10.6313H44.4805V12.9328H39.6129V25.9063H36.9449V12.9328H32.0977L32.118 10.6313ZM43.951 14.8472H46.2321V16.9857H46.2728C46.3543 16.6802 46.4968 16.3951 46.7005 16.11C46.9042 15.8248 47.1486 15.5601 47.4541 15.336C47.7392 15.0916 48.0651 14.9083 48.4317 14.7658C48.7779 14.6232 49.1445 14.5417 49.5111 14.5417C49.7962 14.5417 49.9999 14.5621 50.1017 14.5621C50.2036 14.5825 50.3258 14.6028 50.4276 14.6028V16.945C50.2647 16.9043 50.0814 16.8839 49.8981 16.8635C49.7148 16.8432 49.5518 16.8228 49.3685 16.8228C48.9612 16.8228 48.5742 16.9043 48.2076 17.0672C47.841 17.2301 47.5355 17.4745 47.2504 17.78C46.9856 18.1059 46.7616 18.4929 46.5987 18.9613C46.4357 19.4297 46.3543 19.9796 46.3543 20.5906V25.8452H43.9103L43.951 14.8472ZM61.6292 25.9063H59.226V24.3584H59.1852C58.8797 24.9287 58.4317 25.3564 57.841 25.7026C57.2504 26.0489 56.6394 26.2118 56.0284 26.2118C54.5824 26.2118 53.5233 25.8656 52.8716 25.1324C52.2199 24.4195 51.894 23.3197 51.894 21.8737V14.8472H54.338V21.6293C54.338 22.6069 54.5213 23.2994 54.9082 23.6863C55.2748 24.0937 55.8044 24.2973 56.4765 24.2973C56.9856 24.2973 57.4133 24.2159 57.7596 24.0529C58.1058 23.89 58.3909 23.6863 58.5946 23.4216C58.8186 23.1568 58.9612 22.8309 59.063 22.4643C59.1649 22.0977 59.2056 21.6904 59.2056 21.2627V14.8472H61.6496V25.9063H61.6292ZM65.784 22.3625C65.8655 23.0753 66.1302 23.5641 66.5987 23.8696C67.0671 24.1548 67.6374 24.2973 68.2891 24.2973C68.5131 24.2973 68.7779 24.277 69.063 24.2362C69.3482 24.1955 69.6333 24.1344 69.8777 24.0326C70.1425 23.9307 70.3461 23.7882 70.5091 23.5845C70.672 23.3808 70.7535 23.1364 70.7331 22.8309C70.7127 22.5254 70.6109 22.2607 70.3869 22.057C70.1628 21.8533 69.8981 21.7108 69.5722 21.5682C69.2463 21.446 68.8594 21.3442 68.4317 21.2627C68.004 21.1812 67.5763 21.0794 67.1282 20.9776C66.6801 20.8757 66.2321 20.7535 65.8044 20.611C65.3767 20.4684 65.0101 20.2851 64.6638 20.0204C64.338 19.776 64.0528 19.4705 63.8695 19.0835C63.6659 18.6965 63.564 18.2485 63.564 17.6782C63.564 17.0672 63.7066 16.5784 64.0121 16.1711C64.2972 15.7637 64.6842 15.4379 65.1323 15.1935C65.5803 14.9491 66.0895 14.7658 66.6394 14.6639C67.1893 14.5621 67.7188 14.5214 68.2076 14.5214C68.7779 14.5214 69.3278 14.5825 69.837 14.7047C70.3461 14.8269 70.8349 15.0102 71.2423 15.2953C71.67 15.5601 72.0162 15.9267 72.2809 16.3544C72.5661 16.7821 72.729 17.3116 72.8105 17.9226H70.2647C70.1425 17.332 69.8777 16.945 69.4704 16.7413C69.0427 16.5377 68.5742 16.4358 68.0243 16.4358C67.8614 16.4358 67.6374 16.4562 67.4133 16.4766C67.1689 16.5173 66.9653 16.558 66.7412 16.6395C66.5376 16.721 66.3543 16.8432 66.2117 16.9857C66.0691 17.1283 65.9877 17.332 65.9877 17.5764C65.9877 17.8819 66.0895 18.1059 66.2932 18.2892C66.4968 18.4725 66.7616 18.6151 67.1078 18.7576C67.4337 18.8798 67.8207 18.9817 68.2484 19.0631C68.6761 19.1446 69.1241 19.2464 69.5722 19.3483C70.0203 19.4501 70.448 19.5723 70.8757 19.7149C71.3034 19.8574 71.6903 20.0407 72.0162 20.3055C72.3421 20.5499 72.6272 20.8554 72.8308 21.222C73.0345 21.5886 73.1363 22.057 73.1363 22.5865C73.1363 23.2383 72.9938 23.7882 72.6883 24.2566C72.3828 24.7047 71.9958 25.0916 71.5274 25.3768C71.059 25.6619 70.5091 25.8656 69.9388 26.0081C69.3482 26.1303 68.7779 26.2118 68.2076 26.2118C67.5152 26.2118 66.8634 26.1303 66.2728 25.9674C65.6822 25.8045 65.1526 25.5601 64.7249 25.2546C64.2972 24.9287 63.951 24.5417 63.7066 24.0529C63.4622 23.5845 63.3196 23.0142 63.2993 22.3421H65.7636V22.3625H65.784ZM73.8288 14.8472H75.6822V11.5071H78.1262V14.8269H80.3258V16.6395H78.1262V22.5458C78.1262 22.8106 78.1465 23.0142 78.1669 23.2179C78.1873 23.4012 78.2484 23.5641 78.3095 23.6863C78.3909 23.8085 78.5131 23.9104 78.6557 23.9715C78.8186 24.0326 79.0223 24.0733 79.3074 24.0733C79.4704 24.0733 79.6537 24.0733 79.8166 24.0529C79.9795 24.0326 80.1628 24.0122 80.3258 23.9715V25.8656C80.061 25.9063 79.7962 25.9267 79.5315 25.947C79.2667 25.9878 79.0223 25.9878 78.7372 25.9878C78.0854 25.9878 77.5763 25.9267 77.1893 25.8045C76.8023 25.6823 76.4968 25.499 76.2728 25.2749C76.0488 25.0305 75.9062 24.7454 75.8247 24.3992C75.7433 24.0529 75.7025 23.6252 75.6822 23.1772V16.6599H73.8288V14.8472ZM82.0365 14.8472H84.338V16.3544H84.3787C84.7249 15.7026 85.1934 15.2546 85.8044 14.9694C86.4154 14.6843 87.0671 14.5417 87.8003 14.5417C88.6761 14.5417 89.4296 14.6843 90.0814 15.0102C90.7331 15.3157 91.2626 15.723 91.6903 16.2729C92.118 16.8024 92.4439 17.4338 92.6475 18.1466C92.8512 18.8595 92.9734 19.6334 92.9734 20.4277C92.9734 21.222 92.8716 21.8941 92.6883 22.5865C92.4846 23.279 92.1995 23.9104 91.8125 24.4399C91.4255 24.9694 90.9368 25.3971 90.3258 25.723C89.7148 26.0489 89.0223 26.2118 88.2076 26.2118C87.8614 26.2118 87.4948 26.1711 87.1486 26.11C86.8023 26.0489 86.4561 25.947 86.1302 25.8045C85.8044 25.6619 85.4989 25.4786 85.2341 25.2546C84.949 25.0305 84.7249 24.7658 84.5416 24.4806H84.5009V30H82.0569V14.8472H82.0365ZM90.5702 20.3869C90.5702 19.8982 90.5091 19.4094 90.3665 18.9409C90.2443 18.4725 90.0406 18.0652 89.7759 17.6986C89.5111 17.332 89.1852 17.0468 88.8186 16.8228C88.4317 16.5988 87.9836 16.4969 87.4948 16.4969C86.4765 16.4969 85.7025 16.8432 85.173 17.556C84.6638 18.2688 84.3991 19.2261 84.3991 20.4073C84.3991 20.9776 84.4602 21.4867 84.6027 21.9552C84.7453 22.4236 84.9286 22.8309 85.2137 23.1772C85.4785 23.5234 85.8044 23.7882 86.1913 23.9918C86.5783 24.1955 87.006 24.2973 87.5152 24.2973C88.0854 24.2973 88.5335 24.1751 88.9205 23.9511C89.3074 23.7271 89.6129 23.4216 89.8777 23.0753C90.1221 22.7087 90.3054 22.3014 90.4072 21.833C90.5091 21.3442 90.5702 20.8757 90.5702 20.3869ZM94.8675 10.6313H97.3115V12.9328H94.8675V10.6313ZM94.8675 14.8472H97.3115V25.9063H94.8675V14.8472ZM99.4907 10.6313H101.935V25.9063H99.4907V10.6313ZM109.389 26.2118C108.513 26.2118 107.719 26.0692 107.026 25.7637C106.334 25.4582 105.764 25.0713 105.275 24.5621C104.806 24.0529 104.44 23.4216 104.195 22.7087C103.951 21.9959 103.808 21.2016 103.808 20.3666C103.808 19.5316 103.931 18.7576 104.195 18.0448C104.44 17.332 104.806 16.721 105.275 16.1914C105.743 15.6823 106.334 15.2749 107.026 14.9898C107.719 14.7047 108.513 14.5417 109.389 14.5417C110.265 14.5417 111.059 14.6843 111.751 14.9898C112.444 15.2749 113.014 15.6823 113.503 16.1914C113.971 16.7006 114.338 17.332 114.582 18.0448C114.827 18.7576 114.969 19.5316 114.969 20.3666C114.969 21.2016 114.847 21.9959 114.582 22.7087C114.318 23.4216 113.971 24.0326 113.503 24.5621C113.035 25.0713 112.444 25.4786 111.751 25.7637C111.059 26.0489 110.285 26.2118 109.389 26.2118ZM109.389 24.277C109.918 24.277 110.407 24.1548 110.794 23.9307C111.202 23.7067 111.507 23.4012 111.772 23.0346C112.037 22.668 112.22 22.2403 112.342 21.7922C112.464 21.3238 112.525 20.8554 112.525 20.3666C112.525 19.8778 112.464 19.4297 112.342 18.9613C112.22 18.4929 112.037 18.0855 111.772 17.7189C111.507 17.3523 111.181 17.0672 110.794 16.8432C110.387 16.6191 109.918 16.4969 109.389 16.4969C108.859 16.4969 108.371 16.6191 107.984 16.8432C107.576 17.0672 107.271 17.3727 107.006 17.7189C106.741 18.0855 106.558 18.4929 106.436 18.9613C106.314 19.4297 106.252 19.8982 106.252 20.3666C106.252 20.835 106.314 21.3238 106.436 21.7922C106.558 22.2607 106.741 22.668 107.006 23.0346C107.271 23.4012 107.597 23.7067 107.984 23.9307C108.391 24.1751 108.859 24.277 109.389 24.277ZM115.703 14.8472H117.556V11.5071H120V14.8269H122.199V16.6395H120V22.5458C120 22.8106 120.02 23.0142 120.041 23.2179C120.061 23.4012 120.122 23.5641 120.183 23.6863C120.265 23.8085 120.387 23.9104 120.529 23.9715C120.692 24.0326 120.896 24.0733 121.181 24.0733C121.344 24.0733 121.527 24.0733 121.69 24.0529C121.853 24.0326 122.037 24.0122 122.199 23.9715V25.8656C121.935 25.9063 121.67 25.9267 121.405 25.947C121.14 25.9878 120.896 25.9878 120.611 25.9878C119.959 25.9878 119.45 25.9267 119.063 25.8045C118.676 25.6823 118.371 25.499 118.147 25.2749C117.922 25.0305 117.78 24.7454 117.698 24.3992C117.617 24.0529 117.576 23.6252 117.556 23.1772V16.6599H115.703V14.8472Z" fill="black"/>
<path d="M29.2668 10.6314H18.0855L14.6436 0L11.1813 10.6314L0 10.611L9.04277 17.1894L5.58045 27.8208L14.6232 21.2424L23.666 27.8208L20.224 17.1894L29.2668 10.6314Z" fill="#00B67A"/>
</g>
<defs>
<clipPath id="clip0_590_751">
<rect width="122.2" height="30" fill="white"/>
</clipPath>
</defs>
</svg>
