<svg width="86" height="69" viewBox="0 0 86 69" fill="none" xmlns="http://www.w3.org/2000/svg">
<path d="M52.5362 11.3281L48.4172 8.38589L46.4067 10.161L45.1416 7.39538L44.3178 8.92531L42.6113 8.5232L43.1605 7.81707L41.3756 6.3852L40.3262 6.84618L40.5616 6.04194L37.9136 5.22797L37.2075 5.95372L35.4226 3.57053L34.2751 5.22797L32.1372 5.75756L31.5487 4.01189L29.5971 4.99262L25.9488 2.08968L22.7321 4.22762L17.8971 5.04164L14.6509 3.63918L12.66 4.24725L11.9245 3.04095L11.5518 3.05078L12.0618 1.22663L10.5907 0.755859L7.28591 9.80793L3.363 10.8083H3.14726L2.7059 9.80793L1.84285 11.9655L0.205078 11.789L1.44079 14.231L1.10732 16.5945L3.0884 16.4278L2.00956 17.134L2.36265 18.7914L4.88309 21.8806L4.17697 23.1262L6.31492 25.0288L5.62841 29.8637L7.47219 30.7464L5.44206 33.4531L6.87388 34.3162L6.46198 35.7774L9.06091 38.906L11.0518 38.8863L10.8066 41.1812L13.9841 42.6229L13.5232 45.0943L14.5726 47.9482L17.348 49.5566L19.8096 48.5367L19.7115 51.6554L21.7318 51.93L22.1634 54.2542L20.9276 57.4907L21.5258 58.8244L29.303 58.187L28.8224 57.118L30.0287 57.4024L30.9114 55.4018L32.6473 56.1471L32.6276 58.187L34.8048 57.3436L35.0206 56.9415L35.9915 56.0784L37.2664 57.6182L39.1102 57.1376L39.9046 60.5505L43.7098 62.6101L43.7241 65.2201L43.8035 65.0991L43.8522 64.9762L44.0874 65.2114L44.3235 66.1525C44.3422 66.2271 44.3998 66.2851 44.4744 66.3037L44.9465 66.4214L44.8192 67.0582C44.8078 67.1146 44.8208 67.1734 44.8541 67.22C44.8881 67.2671 44.94 67.2975 44.9968 67.3048L45.5201 67.3701L45.6376 67.8066L48.2147 68.2694L48.5727 68.2243L48.722 68.2742L48.8065 68.3757L51.379 68.8376L53.3601 67.5038L52.6343 66.1995L53.7132 67.0135L55.1842 66.0818L56.0178 68.4453L57.9205 66.8467L60.8038 66.425L60.8136 65.1893L63.54 63.7575L65.2857 61.1488L63.9813 57.775L65.2857 54.4602L67.5708 55.0977L69.0811 53.6463L77.0249 53.8227L78.2018 53.6658L78.6529 51.979L80.2221 52.5772L78.9373 47.0754L81.1538 46.4183L79.8789 44.1234L82.9093 43.28L82.2522 41.5147L84.0146 40.4693L83.5511 39.6189C83.5211 39.5629 83.5178 39.496 83.543 39.4376C83.5681 39.3792 83.6184 39.3354 83.6801 39.3187L84.845 39.0084L85.0503 38.6653C85.0884 38.6024 85.1557 38.5643 85.2287 38.5643H85.5986L85.4153 38.267L84.8475 37.983H84.398C84.3088 37.983 84.2293 37.9258 84.2009 37.8407L84.1182 37.5912C84.0922 37.5121 84.1157 37.4245 84.1782 37.3697L84.2464 37.3105L83.4535 37.1974L83.1982 37.2491L83.1585 37.3089C83.1406 37.3357 83.1163 37.358 83.0887 37.3742L82.5071 37.7064C82.4892 37.7165 82.4698 37.7242 82.4495 37.7287L81.7023 37.895C81.6309 37.9104 81.5571 37.8885 81.506 37.8346C81.4557 37.7815 81.437 37.7056 81.4573 37.6354L81.7559 36.5897L81.261 36.0945C81.2221 36.0555 81.2002 36.0028 81.2002 35.9477V35.7477L81.0558 35.4589C81.0185 35.3834 81.0298 35.2926 81.085 35.2293L81.6667 34.5649C81.6934 34.5349 81.7275 34.513 81.7664 34.502L82.0482 34.4212L82.1479 33.5169L81.9976 33.3416C81.9538 33.2905 81.9368 33.2215 81.9538 33.1562L82.1072 32.5417L82.0763 32.4172H82.0058L81.7356 32.7547C81.7243 32.7685 81.7121 32.7806 81.6983 32.7908L80.7021 33.5387C80.6194 33.6004 80.5034 33.5931 80.4303 33.5197L79.8487 32.938C79.8179 32.9072 79.7976 32.8682 79.7911 32.8257L79.7067 32.3272C79.7027 32.302 79.7035 32.2764 79.7084 32.2517L79.7765 31.9114L79.4382 31.3013L79.0155 31.1606C78.9401 31.1354 78.8857 31.0697 78.8752 30.9911C78.8646 30.9124 78.9003 30.8345 78.966 30.7907L79.1567 30.6637L79.2995 30.2338C79.3327 30.1307 79.4374 30.0727 79.5469 30.0975L79.8162 30.1646L79.3983 29.9912L81.3892 28.0298L79.7612 26.9019L80.03 26.8764L80.2156 26.6539L80.1237 26.6079L79.4366 26.6842L79.0813 26.6854C79.0107 26.6854 78.945 26.6497 78.9069 26.5901C78.8687 26.5309 78.8631 26.4562 78.8923 26.3918L79.2549 25.5939L79.0026 25.2783C78.9604 25.2252 78.9466 25.1546 78.9653 25.0897C78.9847 25.0244 79.035 24.9729 79.0991 24.9514L79.151 24.934L79.0504 24.6326C79.0431 24.6115 79.0399 24.5892 79.0399 24.5669V23.8194C79.0399 23.7816 79.0504 23.7447 79.0691 23.7127L79.3117 23.3091L79.3864 23.1345L79.1953 23.0809L78.8419 23.2576C78.7738 23.2908 78.6935 23.2856 78.6318 23.243C78.5694 23.2 78.5353 23.1265 78.5426 23.0511L78.6156 22.3186L78.1037 21.8063C78.0583 21.7608 78.0364 21.6972 78.0445 21.6335L78.1281 20.9691C78.1329 20.9334 78.1459 20.8993 78.1678 20.8705L78.3536 20.6227L78.0739 19.7155L76.7405 20.7822L75.7598 18.2715L74.122 18.8796L73.5826 16.8005L72.5884 16.0834L72.5281 16.1135C72.4989 16.1281 72.4673 16.1354 72.4357 16.1354C72.3975 16.1354 72.3602 16.1248 72.3261 16.1045C72.2653 16.0664 72.228 15.9995 72.228 15.9277V15.8409L71.721 15.7139C71.6431 15.6945 71.5831 15.6316 71.5676 15.5529L71.5197 15.3126L70.4723 14.5571H70.1099C70.0206 14.5571 69.9411 14.4999 69.9127 14.4151L69.7464 13.9166C69.7464 13.9166 69.7464 13.9166 69.7464 13.9162L69.6637 13.6672C69.6361 13.584 69.6637 13.492 69.7335 13.438L70.3654 12.9468L70.3281 12.8373C70.3029 12.7627 70.3224 12.6799 70.3784 12.6243L70.8164 12.1867V11.975L70.5017 11.7863C70.4222 11.7385 70.3841 11.6428 70.4084 11.5527C70.4335 11.4631 70.5155 11.4006 70.6088 11.4006H70.7583L69.0026 8.52317L66.2173 7.84645L66.08 9.81774L63.7361 9.42546L62.8632 10.6906L62.0983 9.42546L57.332 10.7396L55.5569 9.10183L52.5362 11.3281ZM51.9167 63.4969L52.0951 63.4373L52.203 63.5723L52.0424 63.6928C52.027 63.7042 52.0132 63.7175 52.0018 63.7325L51.9167 63.4969ZM50.9221 62.6727C50.8953 62.6609 50.8669 62.6548 50.8377 62.6548H50.6876L50.9837 62.1121L51.232 62.0054L51.3772 62.8747L50.9221 62.6727Z" fill="#D10505"/>
</svg>
